<?xml version="1.0" encoding="utf-8"?><svg xmlns="http://www.w3.org/2000/svg" xmlns:xlink="http://www.w3.org/1999/xlink"><symbol viewBox="0 0 25 25" id="acc_minus" xmlns="http://www.w3.org/2000/svg"><path d="M0 12.5c0 1.208.98 2.188 2.188 2.188h20.625a2.18 2.18 0 001.547-.641 2.187 2.187 0 00-1.548-3.734H2.187A2.186 2.186 0 000 12.498z"/><defs><clipPath id="aaclip0"><path transform="matrix(-1 0 0 1 25 0)" d="M0 0h25v25H0z"/></clipPath></defs></symbol><symbol viewBox="0 0 26 26" id="acc_plus" xmlns="http://www.w3.org/2000/svg"><path d="M1.411 11.187h9.775V1.412C11.186.967 11.791 0 13 0c1.21 0 1.814.966 1.814 1.41v9.776h9.775c.445 0 1.411.605 1.411 1.814 0 1.21-.966 1.814-1.41 1.814h-9.776v9.775c0 .445-.605 1.41-1.814 1.41-1.21 0-1.814-.965-1.814-1.41v-9.775H1.411C.966 14.815 0 14.21 0 13s.966-1.814 1.411-1.814z"/><defs><clipPath id="abclip0"><path transform="matrix(-1 0 0 1 26 0)" d="M0 0h26v26H0z"/></clipPath></defs></symbol><symbol viewBox="0 0 25 16" id="aside_prev" xmlns="http://www.w3.org/2000/svg"><path d="M.293 7.293a1 1 0 000 1.414l6.364 6.364a1 1 0 001.414-1.414L2.414 8l5.657-5.657A1 1 0 006.657.93L.293 7.293zM25 7H1v2h24V7z"/></symbol><symbol viewBox="0 0 19 18" id="c_email" xmlns="http://www.w3.org/2000/svg"><path d="M18.903.737a.297.297 0 00-.307-.042L.164 8.81A.269.269 0 000 9.05a.268.268 0 00.159.245l5.216 2.425c.096.045.21.035.295-.026l5.072-3.59-3.982 3.88a.26.26 0 00-.08.207l.397 4.891a.272.272 0 00.195.235.291.291 0 00.304-.08l2.768-3.039 3.423 1.55c.074.033.16.034.236.003a.275.275 0 00.157-.166L18.987 1.02a.26.26 0 00-.084-.283z"/><defs><clipPath id="adclip0"><path d="M0 0h19v18H0z"/></clipPath></defs></symbol><symbol viewBox="0 0 15 19" id="c_mark" xmlns="http://www.w3.org/2000/svg"><path d="M7.125 0a7.125 7.125 0 017.125 7.125C14.25 11.06 8.312 19 7.125 19 5.937 19 0 11.06 0 7.125A7.125 7.125 0 017.125 0zm0 11.875c2.62 0 4.75-2.132 4.75-4.75s-2.13-4.75-4.75-4.75a4.755 4.755 0 00-4.75 4.75c0 2.618 2.13 4.75 4.75 4.75z"/></symbol><symbol viewBox="0 0 19 19" id="c_phone" xmlns="http://www.w3.org/2000/svg"><path d="M18.99 14.99a.918.918 0 01-.28.805l-2.676 2.655c-.12.134-.278.248-.472.341a1.954 1.954 0 01-.574.182c-.013 0-.053.003-.12.01a2.73 2.73 0 01-.262.01c-.255 0-.667-.044-1.237-.131-.57-.087-1.267-.302-2.092-.644-.824-.342-1.76-.855-2.806-1.538-1.046-.684-2.159-1.623-3.339-2.816-.938-.926-1.716-1.81-2.333-2.655a18.916 18.916 0 01-1.488-2.344 12.62 12.62 0 01-.845-1.95 10.351 10.351 0 01-.382-1.51c-.067-.422-.094-.753-.08-.995.013-.241.02-.375.02-.402.026-.188.087-.379.18-.573a1.51 1.51 0 01.342-.473L3.222.287a.886.886 0 01.643-.282.75.75 0 01.463.151c.134.1.248.225.342.372l2.152 4.083c.12.215.154.45.1.704-.053.255-.167.47-.341.644l-.986.986a.336.336 0 00-.07.13c-.02.06-.03.11-.03.151.053.282.174.604.362.966a8.8 8.8 0 00.744 1.176c.335.463.811.996 1.428 1.6.603.616 1.14 1.095 1.609 1.438.47.341.861.593 1.177.754.315.16.556.258.724.291l.251.05c.027 0 .07-.01.13-.03a.335.335 0 00.132-.07l1.146-1.167c.242-.214.523-.321.845-.321.228 0 .409.04.543.12h.02l3.882 2.293c.282.175.45.396.503.664z"/></symbol><symbol viewBox="0 0 19 19" id="c_site" xmlns="http://www.w3.org/2000/svg"><path d="M5.503 5.248c1.084.226 2.244.36 3.44.392v3.303H5.028c.036-1.3.199-2.552.475-3.695zm9.583 3.695a19.066 19.066 0 00-.508-3.959 12.536 12.536 0 002.64-1.053A9.429 9.429 0 0119 8.943h-3.914zm0 1.114H19a9.429 9.429 0 01-1.781 5.012 12.53 12.53 0 00-2.642-1.053c.298-1.23.472-2.57.509-3.96zM7.9.643c.34-.288.69-.482 1.043-.581v4.464c-1.093-.03-2.15-.15-3.136-.35.18-.553.39-1.073.63-1.55.428-.857.92-1.524 1.462-1.983zm6.378 14.443c.815.229 1.564.518 2.222.86a9.476 9.476 0 01-4.019 2.596 8.392 8.392 0 001.078-1.67c.275-.55.515-1.148.72-1.786zm-1.715-12.46c.24.477.45.997.63 1.55-.986.2-2.043.32-3.136.35V.062c.354.1.704.293 1.044.581.542.459 1.034 1.126 1.462 1.983zm-8.649 7.431a19.01 19.01 0 00.508 3.959c-.975.274-1.868.627-2.641 1.053a9.429 9.429 0 01-1.782-5.012h3.915zm.809-6.143a11.628 11.628 0 01-2.222-.86A9.476 9.476 0 016.52.458a8.39 8.39 0 00-1.079 1.67c-.274.55-.514 1.148-.718 1.786zm1.714 12.46a11.382 11.382 0 01-.63-1.55c.986-.2 2.043-.32 3.136-.35v4.464a2.803 2.803 0 01-1.044-.581c-.542-.459-1.034-1.126-1.462-1.983zM4.422 4.984a19.066 19.066 0 00-.508 3.96H-.001A9.428 9.428 0 011.78 3.93c.774.426 1.667.78 2.642 1.053zm4.521 5.073v3.303a19.439 19.439 0 00-3.44.392 17.918 17.918 0 01-.475-3.695h3.915zm1.113-1.114V5.64a19.442 19.442 0 003.44-.392c.276 1.143.439 2.394.475 3.695h-3.915zm4.222-5.029a12.546 12.546 0 00-.719-1.786 8.39 8.39 0 00-1.078-1.67A9.476 9.476 0 0116.5 3.054c-.658.343-1.407.631-2.222.86zM4.723 15.086c.204.638.444 1.237.718 1.786a8.365 8.365 0 001.079 1.67 9.476 9.476 0 01-4.02-2.596 11.632 11.632 0 012.223-.86zm5.333-5.029h3.915a17.918 17.918 0 01-.475 3.695 19.439 19.439 0 00-3.44-.392v-3.303zm1.045 8.3c-.34.288-.69.482-1.044.581v-4.464c1.093.03 2.15.15 3.136.35a11.397 11.397 0 01-.63 1.55c-.428.857-.92 1.524-1.462 1.983z"/><defs><clipPath id="agclip0"><path transform="matrix(-1 0 0 1 19 0)" d="M0 0h19v19H0z"/></clipPath></defs></symbol><symbol viewBox="0 0 7 8" id="calendar_arrow" xmlns="http://www.w3.org/2000/svg"><path d="M6.644 4L.417 7.464V.536L6.644 4z"/></symbol><symbol viewBox="0 0 42 42" id="cards1" xmlns="http://www.w3.org/2000/svg"><path d="M21.677 32.161V11.933a.677.677 0 10-1.355 0v20.228a.677.677 0 101.355 0z"/><path d="M41.323 6.845c-1.433 0-3.217-.618-5.107-1.272-2.392-.829-5.105-1.768-7.918-1.768-3.254 0-5.24 1.426-6.332 2.623A8.23 8.23 0 0021 7.722a8.236 8.236 0 00-.965-1.294c-1.093-1.197-3.079-2.623-6.333-2.623-2.813 0-5.525.939-7.918 1.768-1.89.654-3.674 1.272-5.107 1.272A.677.677 0 000 7.522v27.286c0 .374.303.677.677.677 1.66 0 3.55-.654 5.55-1.346 2.292-.794 4.89-1.694 7.475-1.694 2.216 0 4.01.734 5.332 2.182a.678.678 0 001-.914c-1.092-1.196-3.078-2.622-6.332-2.622-2.813 0-5.526.939-7.918 1.767-1.602.555-3.129 1.084-4.43 1.232V8.166c1.49-.142 3.14-.713 4.873-1.313 2.292-.794 4.89-1.693 7.475-1.693 5.228 0 6.595 4.151 6.65 4.326a.678.678 0 001.296 0c.013-.044 1.389-4.326 6.65-4.326 2.585 0 5.183.9 7.475 1.693 1.733.6 3.383 1.171 4.872 1.313V34.09c-1.3-.148-2.827-.677-4.429-1.232-2.392-.828-5.105-1.767-7.918-1.767-3.254 0-5.24 1.426-6.332 2.623a.677.677 0 101 .913c1.322-1.447 3.116-2.181 5.332-2.181 2.585 0 5.183.9 7.475 1.693 2 .692 3.89 1.346 5.55 1.346a.677.677 0 00.677-.677V7.522a.677.677 0 00-.677-.677z"/><path d="M41.323 36.84c-1.433 0-3.217-.618-5.107-1.272-2.392-.829-5.105-1.768-7.918-1.768-3.056 0-4.994 1.258-6.123 2.403h-2.35c-1.13-1.145-3.067-2.403-6.123-2.403-2.813 0-5.526.94-7.918 1.768-1.89.654-3.674 1.272-5.107 1.272a.677.677 0 100 1.355c1.66 0 3.55-.654 5.55-1.347 2.292-.793 4.89-1.693 7.475-1.693 2.216 0 4.01.734 5.332 2.182.128.14.31.22.5.22h2.932a.68.68 0 00.5-.22c1.322-1.448 3.116-2.182 5.332-2.182 2.585 0 5.183.9 7.475 1.693 2 .693 3.89 1.347 5.55 1.347a.677.677 0 100-1.355z"/><defs><clipPath id="aiclip0"><path d="M0 0h42v42H0z"/></clipPath></defs></symbol><symbol viewBox="0 0 48 48" id="cards2" xmlns="http://www.w3.org/2000/svg"><path d="M33.749 12.215H18.77a.704.704 0 100 1.408h14.978a.704.704 0 000-1.408zm-18.253 0h-2.373a.704.704 0 100 1.408h2.373a.704.704 0 100-1.408zm4.987 21.567h-7.36a.704.704 0 100 1.407h7.36a.704.704 0 100-1.407zm2.953-7.189H13.123a.704.704 0 100 1.407h10.313a.704.704 0 000-1.407zm5.019-7.189H13.124a.704.704 0 100 1.407h15.331a.703.703 0 100-1.407z"/><path d="M41.772 5.017H12.693a4.676 4.676 0 00-4.67 4.67v27.686H.702a.704.704 0 00-.703.71c.028 2.794 2.035 4.9 4.67 4.9h29.168a4.676 4.676 0 004.67-4.67v-8.527a.704.704 0 00-1.407 0v8.526c0 1.8-1.464 3.264-3.264 3.264h-.089c-1.84 0-3.242-1.507-3.262-3.507a.704.704 0 00-.704-.696H9.43V9.688c0-1.8 1.464-3.264 3.264-3.264h25.74c-.021.02-.04.043-.061.065l-.073.078c-.026.028-.05.057-.075.086l-.07.084c-.025.029-.047.059-.07.089l-.068.086-.065.092c-.021.03-.043.06-.063.091a2.46 2.46 0 00-.06.094c-.02.032-.041.063-.06.095-.02.032-.038.065-.056.097l-.056.098-.05.1a1.879 1.879 0 00-.051.1c-.017.034-.031.068-.047.103l-.046.102-.041.106-.041.105c-.014.036-.025.073-.037.11l-.036.105-.032.114-.03.107-.028.119-.023.105c-.009.04-.016.083-.023.124l-.018.104c-.007.044-.012.09-.017.134-.004.033-.01.065-.012.097-.005.05-.008.101-.012.152l-.006.084a4.82 4.82 0 00-.006.238v6.245a.704.704 0 101.407 0v-5.306h7.238a.704.704 0 00.703-.71c-.027-2.794-2.035-4.9-4.677-4.9zM29.128 38.78c.01.073.02.145.033.216l.014.072c.008.047.017.095.028.141l.019.084.03.125.024.087a5.548 5.548 0 00.13.406l.042.111.034.084.047.11.036.08c.017.038.036.075.055.113l.035.07.07.132.027.047c.033.06.068.117.103.174l.026.04c.028.043.056.087.085.129l.041.058c.026.035.05.07.077.105l.047.062c.026.032.05.065.077.096l.052.062a4.516 4.516 0 00.133.15l.038.042H4.67c-1.615 0-2.893-1.16-3.195-2.796h27.653zm9.415-29.56l.001-.014.01-.065.017-.09.015-.067a2.894 2.894 0 01.133-.448l.027-.07.03-.072.03-.064c.01-.025.022-.05.034-.075l.028-.055.042-.08.018-.03c.065-.116.136-.227.214-.332l.002-.003.078-.1.012-.017.08-.093.015-.018a3.24 3.24 0 01.084-.09l.014-.016a3.447 3.447 0 01.2-.19l.003-.003a3.27 3.27 0 011.693-.773h.008a3.34 3.34 0 01.14-.017l.022-.001.13-.01.075-.001.082-.002c1.615 0 2.893 1.16 3.195 2.796h-6.432z"/><path d="M47.999 17.984v-.024a.698.698 0 00-.036-.19c0-.004 0-.007-.002-.01l-.003-.007a.707.707 0 00-.039-.09l-.006-.01a.723.723 0 00-.046-.073l-.01-.015a.719.719 0 00-.06-.069l-.015-.014a.698.698 0 00-.064-.054l-.009-.007a.71.71 0 00-.08-.05l-.016-.008a.707.707 0 00-.3-.076c-5.886-.153-13.563 1.264-17.444 5.695-1.699 1.939-2.483 4.399-3.24 6.778a209.226 209.226 0 01-.195.608l-1.189 4.224a.704.704 0 001.355.381l1.103-3.917c1.348-.632 2.434-.927 3.9-1.326.76-.207 1.623-.442 2.666-.762 2.256-.694 6.583-3.597 8.575-5.752 1.741-1.885 3.207-3.286 4.9-4.684l.005-.005a.702.702 0 00.07-.067l.004-.004a.7.7 0 00.059-.077l.01-.015a.701.701 0 00.102-.286v-.004a.721.721 0 00.005-.066v-.024zM30.927 23.91c1.638-1.87 4.148-3.279 7.461-4.189.89-.244 1.831-.447 2.801-.607-2.464 1.195-4.82 2.691-6.136 3.57-2.125 1.42-4.418 3.142-6.112 4.673.501-1.27 1.107-2.443 1.986-3.447zm10.883-1.648c-1.938 2.098-6.124 4.799-7.954 5.361a78.717 78.717 0 01-2.622.75c-.68.184-1.297.353-1.907.547.273-.262.593-.556.97-.885 1.52-1.325 3.486-2.81 5.537-4.18 3.552-2.372 6.766-4.038 9.124-4.76a54.63 54.63 0 00-3.148 3.167z"/><defs><clipPath id="ajclip0"><path d="M0 0h48v48H0z"/></clipPath></defs></symbol><symbol viewBox="0 0 38 38" id="cards3" xmlns="http://www.w3.org/2000/svg"><path d="M19 0h-8.233a.633.633 0 00-.634.633v4.434h-9.5A.633.633 0 000 5.7v31.667c0 .35.284.633.633.633H19c.35 0 .633-.284.633-.633V.633A.633.633 0 0019 0zm-.633 32.933H11.4v-1.266h6.967v1.266zM1.267 9.5h8.866v19H1.267v-19zm17.1-2.533H11.4v-1.9h6.967v1.9zm-17.1 22.8h8.866v1.9H1.267v-1.9zM11.4 30.4V8.233h6.967V30.4H11.4zm6.967-29.133V3.8H11.4V1.267h6.967zm-8.234 5.066v1.9H1.267v-1.9h8.866zm-8.866 26.6h8.866v3.8H1.267v-3.8zm10.133 3.8V34.2h6.967v2.533H11.4z"/><path d="M37.98 34.674L30.38 5.54a.633.633 0 00-.777-.452l-9.5 2.534a.633.633 0 00-.45.77l7.6 29.134a.632.632 0 00.777.451l9.5-2.533a.633.633 0 00.45-.77zM22.046 12.55l8.277-2.206.297 1.14-8.275 2.21-.299-1.144zm8.894.163l3.673 14.09-8.273 2.207-3.673-14.09 8.273-2.207zm3.996 15.316l.648 2.485-8.276 2.207-.646-2.485 8.274-2.207zM29.314 6.476l.69 2.644-8.277 2.206-.689-2.643 8.276-2.207zM28.32 36.59l-.69-2.644 8.276-2.207.69 2.642-8.276 2.209zM8.233 11.4H3.167a.633.633 0 00-.634.633V17.1c0 .35.284.633.634.633h5.066c.35 0 .634-.283.634-.633v-5.067a.633.633 0 00-.634-.633zM7.6 16.467H3.8v-3.8h3.8v3.8z"/></symbol><symbol viewBox="0 0 48 48" id="cards4" xmlns="http://www.w3.org/2000/svg"><path d="M34.365 12.875a.789.789 0 10-1.433.662 9.75 9.75 0 01.9 4.115c0 5.421-4.41 9.832-9.831 9.832-5.422 0-9.832-4.41-9.832-9.832 0-5.421 4.41-9.832 9.832-9.832a9.85 9.85 0 017.291 3.237.79.79 0 001.17-1.059 11.433 11.433 0 00-8.461-3.756c-6.292 0-11.41 5.119-11.41 11.41s5.118 11.41 11.41 11.41c6.29 0 11.41-5.119 11.41-11.41 0-1.667-.352-3.274-1.046-4.777z"/><path d="M39.757 17.652c0-.604.265-1.304.545-2.044.422-1.118.86-2.274.49-3.412-.385-1.185-1.491-1.906-2.467-2.542-.64-.417-1.246-.812-1.576-1.265-.337-.463-.528-1.168-.731-1.914-.303-1.116-.647-2.38-1.641-3.104-.984-.716-2.231-.658-3.436-.6-.78.036-1.515.07-2.07-.11-.518-.168-1.071-.615-1.657-1.089C26.302.836 25.268 0 24 0c-1.269 0-2.303.836-3.215 1.573-.586.473-1.139.92-1.656 1.088-.556.18-1.292.146-2.07.11-1.206-.057-2.452-.116-3.436.6-.994.723-1.338 1.988-1.641 3.104-.203.747-.395 1.452-.732 1.914-.33.454-.935.848-1.576 1.266-.976.635-2.082 1.356-2.466 2.541-.37 1.138.067 2.294.49 3.412.28.74.544 1.44.544 2.044 0 .604-.264 1.303-.544 2.044-.423 1.118-.86 2.274-.49 3.412.384 1.185 1.49 1.906 2.466 2.541.641.418 1.246.812 1.576 1.266.337.462.529 1.167.732 1.914.303 1.116.647 2.38 1.64 3.104.985.716 2.231.657 3.437.6.778-.036 1.514-.07 2.07.11.517.168 1.07.615 1.656 1.088.44.356.91.735 1.42 1.032l-3.024 10.85-2.792-3.11a.79.79 0 00-.817-.229l-3.997 1.218 2.506-8.987a.789.789 0 00-1.52-.423L9.668 44.455a.789.789 0 00.99.966l4.893-1.49 3.416 3.807a.789.789 0 001.348-.315l3.383-12.137c.099.01.2.017.302.017.102 0 .202-.007.3-.017l3.385 12.137a.789.789 0 001.348.315l3.415-3.808 4.893 1.491a.79.79 0 00.99-.966L34.75 31.606c.714-.741 1.007-1.815 1.268-2.778.203-.746.395-1.451.732-1.914.33-.453.935-.848 1.576-1.265.976-.636 2.082-1.356 2.466-2.541.37-1.138-.067-2.294-.49-3.412-.28-.74-.544-1.44-.544-2.044zm-3.332 25.84l-3.998-1.218a.789.789 0 00-.817.228l-2.791 3.111-3.026-10.85c.51-.297.98-.676 1.421-1.032.586-.474 1.139-.92 1.656-1.089.556-.18 1.292-.146 2.07-.109.811.038 1.64.076 2.396-.12l3.089 11.08zm2.866-20.871c-.213.654-.997 1.165-1.827 1.706-.733.477-1.49.97-1.99 1.659-.509.698-.748 1.578-.979 2.429-.258.949-.502 1.845-1.047 2.242-.535.39-1.457.346-2.433.3-.886-.041-1.802-.085-2.632.185-.795.258-1.49.82-2.16 1.362-.778.628-1.513 1.222-2.223 1.222-.711 0-1.446-.594-2.223-1.222-.672-.543-1.366-1.104-2.16-1.362-.524-.17-1.082-.216-1.645-.216-.33 0-.66.016-.988.031-.976.046-1.897.09-2.433-.3-.545-.397-.789-1.293-1.047-2.242-.23-.851-.47-1.732-.978-2.43-.5-.687-1.258-1.18-1.99-1.658-.83-.54-1.615-1.052-1.828-1.707-.198-.61.125-1.463.466-2.366.318-.84.646-1.71.646-2.602 0-.892-.329-1.761-.646-2.602-.341-.903-.664-1.756-.465-2.366.212-.655.996-1.166 1.827-1.707.732-.477 1.49-.97 1.99-1.659.508-.697.747-1.577.978-2.428.258-.95.502-1.846 1.047-2.243.536-.39 1.458-.346 2.434-.3.885.042 1.801.085 2.631-.184.795-.259 1.49-.82 2.161-1.363.778-.628 1.512-1.222 2.223-1.222.71 0 1.445.594 2.222 1.222.672.543 1.366 1.104 2.161 1.362.83.27 1.746.227 2.632.185.976-.046 1.898-.09 2.433.3.545.397.789 1.293 1.047 2.242.231.851.47 1.731.978 2.429.5.688 1.258 1.181 1.99 1.659.83.54 1.615 1.051 1.828 1.706.198.611-.124 1.464-.466 2.367-.317.84-.646 1.71-.646 2.602 0 .892.329 1.761.647 2.602.34.903.663 1.755.465 2.366z"/><path d="M27.048 12.745h-6.095a.789.789 0 000 1.578h6.095a.789.789 0 000-1.578zm0 8.235h-6.095a.789.789 0 000 1.579h6.095a.789.789 0 000-1.578zm2.184-4.117h-2.377a.79.79 0 000 1.578h2.377a.789.789 0 100-1.578zm-4.848 0h-5.617a.79.79 0 000 1.578h5.617a.789.789 0 000-1.578z"/></symbol><symbol viewBox="0 0 42 42" id="cards5" xmlns="http://www.w3.org/2000/svg"><path d="M41.997 32.547l-.01-12.77a2.982 2.982 0 00-2.978-2.977 2.974 2.974 0 00-2.933 2.461l-1.651 9.359a2.673 2.673 0 00-1.896.467l-5.633 3.963a.699.699 0 00-.297.572v7.675a.7.7 0 00.7.7h6.999a.7.7 0 00.7-.7v-.885l4.608-2.934a5.922 5.922 0 002.39-4.931zm-3.158 3.76l-4.917 3.13a.7.7 0 00-.324.59v.57h-5.6v-6.611l5.336-3.754a1.286 1.286 0 011.512 2.08l-3.768 2.826.84 1.12 3.768-2.826a2.686 2.686 0 00.06-4.25l1.708-9.677a1.578 1.578 0 013.133.273l.01 12.77a4.511 4.511 0 01-1.758 3.758zM15.103 33.05L9.47 29.087a2.673 2.673 0 00-1.895-.467l-1.652-9.36a2.978 2.978 0 00-5.91.515l-.01 12.771a5.925 5.925 0 002.405 4.94l4.594 2.925v.886a.7.7 0 00.7.7H14.7a.7.7 0 00.7-.7v-7.676a.699.699 0 00-.298-.572zm-1.102 7.547H8.4v-.57a.7.7 0 00-.323-.59l-4.904-3.121a4.514 4.514 0 01-1.772-3.768l.01-12.77a1.578 1.578 0 013.133-.274l1.707 9.678a2.686 2.686 0 00.06 4.25l3.769 2.826.84-1.12-3.768-2.825a1.286 1.286 0 011.512-2.08L14 33.985v6.611zM21 .003h-.045l.044 1.4c.857 0 1.711.081 2.552.244L23.82.273A14.83 14.83 0 0021 .003zm-2.912.288c-.943.19-1.866.472-2.754.843l.54 1.292a13.22 13.22 0 012.49-.762L18.088.29zm12.321 23.808a13.44 13.44 0 01-2.014 1.656l.78 1.163a14.83 14.83 0 002.224-1.83l-.99-.989zm-3.829-23l-.532 1.295c.805.33 1.576.74 2.3 1.221l.775-1.166A14.678 14.678 0 0026.58 1.1zM34.298 14.7c0 .872-.084 1.74-.252 2.594l1.373.272c.186-.944.28-1.903.28-2.865v-.06l-1.4.06zM31.354 4.27l-.986.992a13.415 13.415 0 011.663 2.009l1.16-.784a14.8 14.8 0 00-1.837-2.218zM26.1 26.986a13.23 13.23 0 01-2.493.758l.273 1.373a14.627 14.627 0 002.756-.838l-.537-1.293zm8.46-17.965l-1.29.541c.336.803.592 1.637.765 2.49l1.372-.277a14.659 14.659 0 00-.846-2.754zm-1.27 10.766a13.315 13.315 0 01-1.228 2.298l1.164.778c.534-.8.99-1.65 1.358-2.54l-1.293-.536zM21 28c-.866 0-1.73-.084-2.58-.251l-.27 1.374c.94.183 1.894.276 2.85.276h.015l-.015-1.4zM9.953 22.107l-1.162.782c.537.798 1.15 1.542 1.832 2.221l.988-.99a13.397 13.397 0 01-1.658-2.013zM12.8 2.5a14.78 14.78 0 00-2.22 1.835l.992.987a13.377 13.377 0 012.01-1.66l-.783-1.161zm-6.225 9.366a14.833 14.833 0 00-.273 2.835v.03l1.4-.03c0-.862.082-1.721.247-2.567l-1.374-.268zm2.182-5.301a14.698 14.698 0 00-1.354 2.542l1.295.533a13.25 13.25 0 011.224-2.3l-1.165-.775zM7.96 17.322l-1.373.274c.189.944.47 1.867.84 2.756l1.292-.539a13.24 13.24 0 01-.76-2.491zm5.669 8.449l-.777 1.164c.8.534 1.651.989 2.54 1.356l.535-1.294a13.286 13.286 0 01-2.298-1.226zm17.87-13.87c0-2.149-1.335-4.453-3.538-4.842a4.672 4.672 0 00-4.596-4.257A4.6 4.6 0 0021 3.455a4.6 4.6 0 00-2.365-.653 4.818 4.818 0 00-4.73 4.405 4.861 4.861 0 00-3.404 4.694c0 .998.298 1.973.858 2.8a4.986 4.986 0 00-.858 2.8c0 2.148 1.335 4.452 3.538 4.841a4.672 4.672 0 004.596 4.257A4.6 4.6 0 0021 25.947a4.6 4.6 0 002.365.652 4.818 4.818 0 004.73-4.405A4.861 4.861 0 0031.5 17.5c0-.998-.298-1.973-.858-2.8.56-.826.859-1.8.858-2.799zM20.3 9.101a1.4 1.4 0 11-2.8 0h-1.4a2.803 2.803 0 002.8 2.8 2.767 2.767 0 001.4-.39v13.212a3.21 3.21 0 01-1.665.476 3.273 3.273 0 01-3.181-2.915A2.792 2.792 0 0014.7 16.8v1.4a1.4 1.4 0 110 2.799c-1.675 0-2.8-1.81-2.8-3.5-.001-.86.307-1.69.868-2.341a.699.699 0 000-.916A3.577 3.577 0 0111.9 11.9a3.444 3.444 0 012.802-3.447.766.766 0 00.577-.753 3.433 3.433 0 013.355-3.5 3.209 3.209 0 011.665.477V9.1zm8.931 6.058c.561.65.87 1.482.868 2.341a3.444 3.444 0 01-2.802 3.448.766.766 0 00-.577.752 3.433 3.433 0 01-3.355 3.5 3.21 3.21 0 01-1.665-.477v-7.922a1.4 1.4 0 112.8 0h1.4a2.803 2.803 0 00-2.8-2.8 2.768 2.768 0 00-1.4.39V4.677a3.21 3.21 0 011.665-.476 3.274 3.274 0 013.182 2.916 2.792 2.792 0 00.752 5.483v-1.4a1.4 1.4 0 110-2.8c1.675 0 2.8 1.81 2.8 3.5.001.86-.307 1.69-.868 2.342a.699.699 0 000 .916z"/></symbol><symbol viewBox="0 0 49 49" id="cards6" xmlns="http://www.w3.org/2000/svg"><path d="M39.498 32.365v-5.101l-2.152.837-.007-.014-.05-.093a5.54 5.54 0 00-3.662-2.45l-5.18-.943v-.409a7.908 7.908 0 003.798-5.312 3.163 3.163 0 002.517-3.092V7.99a4.95 4.95 0 00-3.536-4.75l-.395-.394A9.656 9.656 0 0023.958 0c-5.36 0-9.72 4.36-9.72 9.72v6.068a3.163 3.163 0 002.518 3.092 7.908 7.908 0 003.797 5.312v.409l-5.179.942a5.543 5.543 0 00-3.66 2.448l-.047.115-2.165-.842v5.1a2.371 2.371 0 00-2.368 2.369v3.157a2.371 2.371 0 002.368 2.368v2.908L24.5 49l14.998-5.834v-2.908a2.371 2.371 0 002.369-2.368v-3.157a2.371 2.371 0 00-2.369-2.368zm-9.572-5.89l3.418.621a3.955 3.955 0 012.492 1.592l-7.637 2.97 1.727-5.183zM22.2 24.916a7.861 7.861 0 004.602 0l-2.3 1.726-2.302-1.726zm1.1 2.798l-1.611 1.61-1.046-3.135.503-.09 2.154 1.615zm4.556-1.615l.503.091-1.045 3.135-1.611-1.61 2.153-1.616zm4.539-8.952v-2.719c.47.274.79.778.79 1.36 0 .581-.32 1.085-.79 1.359zm-15.788 0a1.574 1.574 0 01-.789-1.36c0-.581.32-1.085.79-1.359v2.719zm0-5.306v.901a3.128 3.128 0 00-.789.327v-3.35c0-4.488 3.652-8.14 8.14-8.14a8.09 8.09 0 015.758 2.384l.696.697.212.053a3.374 3.374 0 012.56 3.278v5.078a3.1 3.1 0 00-.789-.327v-.901h-2.503a6.866 6.866 0 01-5.467-2.732l-.627-.839-1.569 1.57a6.791 6.791 0 01-4.832 2h-.79zm1.58 5.525v-3.983a8.355 8.355 0 005.159-2.427l.307-.307a8.456 8.456 0 006.239 2.77h.924v3.947a6.322 6.322 0 01-6.315 6.315 6.322 6.322 0 01-6.315-6.315zm-2.53 9.73l3.418-.621 1.727 5.182-7.639-2.97a3.954 3.954 0 012.494-1.59zM8.713 37.89v-3.157a.79.79 0 01.789-.79 2.371 2.371 0 012.368 2.369 2.371 2.371 0 01-2.368 2.368.79.79 0 01-.79-.79zm14.998 9.108l-12.63-4.91v-2.164a3.95 3.95 0 002.368-3.612 3.95 3.95 0 00-2.368-3.613v-3.127l12.63 4.911v12.515zm-2.344-15.12l3.133-3.134 3.133 3.134-3.133 1.218-3.133-1.218zM37.92 42.087l-12.63 4.91V34.483l12.63-4.911v3.127a3.95 3.95 0 00-2.369 3.613 3.95 3.95 0 002.369 3.612v2.163zm2.368-4.197a.79.79 0 01-.79.79 2.371 2.371 0 01-2.368-2.368 2.371 2.371 0 012.368-2.369.79.79 0 01.79.79v3.157z"/></symbol><symbol viewBox="0 0 19 19" id="cf1" xmlns="http://www.w3.org/2000/svg"><path d="M9.5 0a9.5 9.5 0 100 19 9.5 9.5 0 000-19zm4.107 11.307H9.579c-.013 0-.026-.004-.04-.004-.013 0-.026.004-.04.004a.657.657 0 01-.656-.657V3.942a.657.657 0 011.314 0v6.05h3.45a.657.657 0 010 1.315z"/></symbol><symbol viewBox="0 0 19 19" id="cf2" xmlns="http://www.w3.org/2000/svg"><path d="M7.248 16.732v.015a2.253 2.253 0 004.506 0v-.015H7.247zm9.445-2.816l-2.027-2.978V7.222a5.166 5.166 0 00-4.152-5.065V1.013a1.013 1.013 0 00-2.026 0v1.144a5.167 5.167 0 00-4.152 5.065v3.716l-2.028 2.978a1.024 1.024 0 00.847 1.601h12.692a1.024 1.024 0 00.846-1.6z"/></symbol><symbol viewBox="0 0 19 13" id="cf3" xmlns="http://www.w3.org/2000/svg"><path d="M4.32 6.474v1.753h10.363V6.474a2.59 2.59 0 011.727-2.431V2.182c0-.95-.777-1.727-1.727-1.727H4.319c-.95 0-1.727.777-1.727 1.727v1.86a2.59 2.59 0 011.727 2.432z"/><path d="M17.273 4.773c-.955 0-1.727.773-1.727 1.727v2.59H3.455V6.5A1.727 1.727 0 100 6.5v4.318c0 .95.777 1.728 1.727 1.728h15.546c.95 0 1.727-.778 1.727-1.728V6.5c0-.954-.773-1.727-1.727-1.727z"/></symbol><symbol viewBox="0 0 26 28" id="docx" xmlns="http://www.w3.org/2000/svg"><path d="M23.83 10.015h-.673V6.771c0-.02-.003-.04-.006-.06a.538.538 0 00-.13-.356L17.622.188l-.004-.004a.537.537 0 00-.145-.113.578.578 0 00-.109-.046c-.01-.002-.019-.007-.03-.01A.55.55 0 0017.21 0H3.94a1.1 1.1 0 00-1.098 1.098v8.917H2.17a1.57 1.57 0 00-1.57 1.57v8.16c0 .867.703 1.57 1.57 1.57h.672v5.587A1.1 1.1 0 003.941 28H22.06a1.1 1.1 0 001.098-1.098v-5.587h.672a1.57 1.57 0 001.57-1.57v-8.16a1.57 1.57 0 00-1.57-1.57zM3.94 1.098h12.72v5.618a.55.55 0 00.549.55h4.85v2.75H3.94V1.098zm13.83 16.053c.4 0 .845-.087 1.106-.192l.2 1.037c-.243.121-.792.253-1.506.253-2.03 0-3.074-1.264-3.074-2.935 0-2.004 1.428-3.119 3.205-3.119.687 0 1.21.14 1.445.262l-.27 1.054a2.857 2.857 0 00-1.114-.218c-1.054 0-1.873.636-1.873 1.942 0 1.175.697 1.916 1.88 1.916zm-3.876-1.985c0 1.924-1.167 3.091-2.883 3.091-1.742 0-2.76-1.315-2.76-2.987 0-1.76 1.123-3.075 2.856-3.075 1.803 0 2.787 1.35 2.787 2.97zm-11.436 2.97V12.37a11.88 11.88 0 011.794-.122c1.115 0 1.838.2 2.403.627.61.453.994 1.176.994 2.212 0 1.123-.41 1.899-.976 2.378-.618.513-1.559.758-2.709.758-.687 0-1.175-.044-1.506-.088zm19.6 8.469H3.942v-5.29H22.06v5.29zm1.008-8.444l-.532-1.062c-.218-.41-.357-.715-.522-1.054h-.018c-.122.34-.27.644-.453 1.054l-.487 1.062h-1.516l1.698-2.97-1.637-2.9h1.525l.514 1.072c.174.356.304.644.443.975h.018c.139-.375.253-.636.4-.975l.497-1.072h1.515l-1.654 2.865 1.741 3.005h-1.532z"/><path d="M6.238 15.13c.009-1.219-.705-1.864-1.846-1.864-.296 0-.488.027-.601.053v3.84c.114.026.297.026.462.026 1.202.01 1.985-.652 1.985-2.055zm3.414.113c0 1.15.54 1.96 1.429 1.96.897 0 1.41-.853 1.41-1.994 0-1.054-.505-1.96-1.42-1.96-.897 0-1.419.854-1.419 1.994z"/></symbol><symbol viewBox="0 0 153 29" id="dorohov" xmlns="http://www.w3.org/2000/svg"><path d="M4.303 19.13c-1.127 0-1.972-.316-2.535-.949-.563-.641-.867-1.5-.91-2.574a34.961 34.961 0 01-.013-1.144c0-.537.004-.927.013-1.17.043-1.075.347-1.928.91-2.561.563-.641 1.408-.962 2.535-.962.771 0 1.413.143 1.924.429.511.277.888.633 1.131 1.066.251.425.39.862.416 1.313v.026a.21.21 0 01-.078.169.294.294 0 01-.195.065h-.26c-.156 0-.251-.091-.286-.273-.165-.737-.464-1.257-.897-1.56-.433-.303-1.018-.455-1.755-.455-.815 0-1.447.23-1.898.689-.45.46-.693 1.166-.728 2.119-.009.234-.013.594-.013 1.079s.004.854.013 1.105c.035.953.277 1.66.728 2.119.45.46 1.083.689 1.898.689.737 0 1.322-.152 1.755-.455.433-.303.732-.823.897-1.56.035-.182.13-.273.286-.273h.26c.078 0 .143.026.195.078.06.043.087.104.078.182-.026.45-.165.893-.416 1.326-.243.425-.62.78-1.131 1.066-.511.277-1.153.416-1.924.416zm4.71 1.3a.281.281 0 01-.207-.078.281.281 0 01-.078-.208v-1.612a.28.28 0 01.078-.208.281.281 0 01.208-.078h.039c.806-.017 1.209-1.391 1.209-4.121v-1.599a.28.28 0 01.078-.208.281.281 0 01.208-.078h3.744c.086 0 .156.026.208.078a.281.281 0 01.078.208v5.694h.637c.086 0 .156.026.208.078a.281.281 0 01.078.208v1.638a.281.281 0 01-.078.208.281.281 0 01-.208.078h-.221a.281.281 0 01-.208-.078.281.281 0 01-.078-.208V19H9.52v1.144a.281.281 0 01-.078.208.281.281 0 01-.208.078h-.221zm4.772-2.21v-5.226h-2.73v1.222c0 1.967-.286 3.31-.858 4.03l3.588-.026zm5.735.91c-.823 0-1.486-.269-1.989-.806-.503-.546-.789-1.274-.858-2.184l-.013-.52.013-.52c.07-.901.351-1.625.845-2.171.503-.546 1.17-.819 2.002-.819.901 0 1.603.299 2.106.897.511.598.767 1.417.767 2.457v.195a.26.26 0 01-.091.208.281.281 0 01-.208.078h-4.628v.13c.017.407.108.789.273 1.144.173.347.412.628.715.845.303.208.659.312 1.066.312.477 0 .862-.091 1.157-.273.303-.19.52-.381.65-.572.078-.104.134-.169.169-.195a.456.456 0 01.221-.039h.208c.078 0 .143.022.195.065a.21.21 0 01.078.169c0 .182-.117.403-.351.663-.225.251-.542.472-.949.663a3.343 3.343 0 01-1.378.273zm2.08-3.913v-.052c0-.667-.19-1.218-.572-1.651-.373-.433-.875-.65-1.508-.65s-1.135.217-1.508.65c-.364.433-.546.984-.546 1.651v.052H21.6zM23.628 19a.328.328 0 01-.221-.078.328.328 0 01-.078-.221v-.208c0-.078.022-.143.065-.195a.265.265 0 01.195-.078c.442 0 .78-.32 1.014-.962.234-.641.35-1.686.35-3.133v-1.599c0-.087.027-.156.079-.208a.281.281 0 01.208-.078h3.718a.28.28 0 01.208.078.281.281 0 01.078.208v6.188a.281.281 0 01-.078.208.281.281 0 01-.208.078h-.221a.281.281 0 01-.208-.078.281.281 0 01-.078-.208v-5.72h-2.704v1.222c0 3.19-.706 4.784-2.12 4.784zm9.536.13c-.416 0-.802-.087-1.157-.26a2.287 2.287 0 01-.858-.702 1.654 1.654 0 01-.312-.975c0-.572.23-1.04.689-1.404.468-.364 1.096-.598 1.885-.702l2.054-.286v-.455c0-.477-.147-.84-.442-1.092-.286-.26-.728-.39-1.326-.39-.442 0-.806.087-1.092.26-.277.173-.455.381-.533.624a.48.48 0 01-.13.221.284.284 0 01-.182.052h-.182a.31.31 0 01-.208-.078.31.31 0 01-.078-.208c0-.19.087-.412.26-.663.173-.26.442-.485.806-.676.364-.19.81-.286 1.339-.286.927 0 1.586.221 1.976.663.39.442.585.98.585 1.612v4.329a.281.281 0 01-.078.208.281.281 0 01-.208.078h-.221a.281.281 0 01-.208-.078.281.281 0 01-.078-.208v-.611c-.19.286-.472.529-.845.728-.364.2-.85.299-1.456.299zm.13-.754c.633 0 1.153-.208 1.56-.624.407-.416.611-1.014.611-1.794v-.442l-1.677.234c-.71.095-1.248.26-1.612.494-.364.234-.546.529-.546.884 0 .399.165.706.494.923a2.12 2.12 0 001.17.325zM38.6 19a.281.281 0 01-.208-.078.281.281 0 01-.078-.208v-6.188a.28.28 0 01.078-.208.281.281 0 01.208-.078h.22c.087 0 .157.026.209.078a.281.281 0 01.078.208v2.639h4.056v-2.639a.28.28 0 01.078-.208.281.281 0 01.208-.078h.22c.087 0 .157.026.209.078a.281.281 0 01.078.208v6.188a.281.281 0 01-.078.208.281.281 0 01-.208.078h-.221a.281.281 0 01-.208-.078.281.281 0 01-.078-.208v-2.795h-4.056v2.795a.281.281 0 01-.078.208.281.281 0 01-.208.078H38.6zm10.032.13c-.901 0-1.603-.273-2.106-.819-.494-.555-.754-1.27-.78-2.145l-.013-.546.013-.546c.026-.875.286-1.586.78-2.132.502-.555 1.204-.832 2.106-.832.901 0 1.599.277 2.093.832.502.546.767 1.257.793 2.132.008.087.013.269.013.546s-.005.46-.013.546c-.026.875-.29 1.59-.793 2.145-.494.546-1.192.819-2.093.819zm0-.754c.615 0 1.11-.195 1.482-.585.381-.399.585-.962.61-1.69.01-.087.014-.247.014-.481 0-.234-.005-.394-.013-.481-.026-.728-.23-1.287-.611-1.677-.373-.399-.867-.598-1.482-.598s-1.114.2-1.495.598c-.373.39-.572.949-.598 1.677l-.013.481.013.481c.026.728.225 1.291.598 1.69.381.39.88.585 1.495.585zm8.313.624a.281.281 0 01-.209-.078.281.281 0 01-.078-.208v-6.188a.28.28 0 01.078-.208.281.281 0 01.209-.078h2.56c.703 0 1.248.16 1.639.481.398.32.598.75.598 1.287 0 .39-.074.689-.221.897-.14.208-.369.386-.69.533.33.121.585.342.767.663.183.32.273.659.273 1.014 0 .607-.208 1.075-.623 1.404-.408.32-.967.481-1.677.481h-2.627zm2.43-3.783c.477 0 .858-.108 1.145-.325a1.05 1.05 0 00.428-.884c0-.364-.138-.624-.416-.78-.268-.156-.654-.234-1.156-.234h-1.924v2.223h1.924zm.092 3.029c.494 0 .883-.095 1.17-.286a.962.962 0 00.441-.845c0-.39-.134-.676-.403-.858-.26-.19-.662-.286-1.208-.286h-2.015v2.275h2.015zm44.735-5.328V6.553h2.657c1.967 0 3.417 1.183 3.417 3.165s-1.415 3.165-3.382 3.165h-2.692v.035zm4.417-3.165c0-.974-.586-1.739-1.725-1.739h-1.036v3.478h1.036c1.069 0 1.725-.8 1.725-1.74zm2.277 0c0-1.948 1.45-3.269 3.382-3.269 1.933 0 3.348 1.356 3.348 3.27 0 1.912-1.45 3.268-3.348 3.268-1.967 0-3.382-1.356-3.382-3.269zm5.073 0c0-1.043-.655-1.843-1.691-1.843-1.035 0-1.725.8-1.725 1.843s.656 1.843 1.725 1.843c1.001 0 1.691-.835 1.691-1.843zm6.143 3.165l-1.07-2.122h-.828v2.122h-1.622V6.553h3.14c1.38 0 2.174.94 2.174 2.122 0 1.113-.656 1.704-1.242 1.912l1.277 2.33h-1.829zm.172-4.243c0-.418-.345-.661-.794-.661h-1.276V9.37h1.276c.415 0 .794-.243.794-.695zm2.278 1.078c0-1.948 1.449-3.269 3.381-3.269 1.933 0 3.348 1.356 3.348 3.27 0 1.912-1.45 3.268-3.348 3.268-1.932 0-3.381-1.356-3.381-3.269zm5.107 0c0-1.043-.656-1.843-1.691-1.843-1.035 0-1.726.8-1.726 1.843s.656 1.843 1.726 1.843c1 0 1.691-.835 1.691-1.843zm6.832 3.165v-2.54h-2.622v2.54h-1.622V6.553h1.622v2.4h2.622V6.588h1.622v6.33h-1.622zm2.588-3.165c0-1.948 1.449-3.269 3.382-3.269s3.348 1.356 3.348 3.27c0 1.912-1.45 3.268-3.348 3.268-1.933 0-3.382-1.356-3.382-3.269zm5.073 0c0-1.043-.656-1.843-1.725-1.843-1.036 0-1.726.8-1.726 1.843s.655 1.843 1.726 1.843c1.069 0 1.725-.835 1.725-1.843zm4.073 3.165l-2.382-6.365h1.829l1.552 4.59 1.553-4.59h1.83l-2.382 6.33h-2v.035zm-44.033 9.494v-6.33h2.657c1.967 0 3.417 1.183 3.417 3.165 0 1.983-1.415 3.165-3.382 3.165h-2.692zm4.417-3.165c0-.973-.586-1.738-1.725-1.738h-1.036v3.477h1.036c1.069 0 1.725-.8 1.725-1.739zm2.623 3.165v-6.33h4.589v1.427h-3.002v.973h2.933v1.426h-2.933v1.078h3.002v1.426h-4.589zm5.314-.869l.862-1.218a2.815 2.815 0 002.002.835c.552 0 .897-.209.897-.522 0-.87-3.554-.174-3.554-2.608 0-1.078.897-2.017 2.519-2.017 1 0 1.898.313 2.553.87l-.897 1.182c-.518-.452-1.208-.66-1.829-.66-.483 0-.69.173-.69.451 0 .8 3.554.209 3.554 2.574 0 1.286-.931 2.121-2.622 2.121-1.277 0-2.174-.417-2.795-1.008zm6.349.869v-6.33h1.622v6.33h-1.622zm2.588-3.165c0-2.017 1.519-3.269 3.416-3.269 1.415 0 2.243.765 2.692 1.53l-1.346.696c-.241-.417-.724-.8-1.346-.8-1.035 0-1.759.8-1.759 1.843 0 1.044.724 1.844 1.759 1.844.449 0 .932-.174 1.174-.383v-.487h-1.415v-1.426h3.037v2.54c-.691.764-1.588 1.25-2.796 1.25-1.863-.034-3.416-1.32-3.416-3.338zm11.63 3.165l-2.657-3.651v3.686h-1.622v-6.364h1.656l2.554 3.478v-3.478h1.622v6.33h-1.553zM81.116.78H70.35v27.37h10.835c9.11 0 14.977-5.39 14.977-13.702C96.127 6.136 90.26.78 81.115.78zm-.276 21.875h-4.797V6.658h4.866c5.625 0 9.559 2.226 9.559 7.825 0 4.486-3.59 8.172-9.628 8.172z"/><path d="M81.944 11.214h-1.242v6.503h1.242c2.45 0 3.9-1.495 3.9-3.338-.035-2.261-1.622-3.165-3.9-3.165z"/></symbol><symbol viewBox="0 0 9 16" id="facebook" xmlns="http://www.w3.org/2000/svg"><path d="M8.325.003L6.25 0C3.919 0 2.412 1.546 2.412 3.938v1.815H.326A.326.326 0 000 6.08v2.63c0 .18.146.326.326.326h2.086v6.638c0 .18.146.326.327.326H5.46c.18 0 .327-.146.327-.326V9.036h2.439c.18 0 .326-.146.326-.326l.001-2.63a.327.327 0 00-.326-.327h-2.44V4.214c0-.74.176-1.115 1.14-1.115h1.397c.18 0 .326-.147.326-.327V.33a.326.326 0 00-.325-.327z"/></symbol><symbol viewBox="0 0 15 15" id="inst" xmlns="http://www.w3.org/2000/svg"><path d="M.565.566C.943.19 1.395 0 1.923 0h11.152c.527 0 .98.189 1.358.566.377.378.566.83.566 1.358v11.152c0 .527-.189.98-.566 1.357-.378.378-.83.567-1.358.567H1.923c-.527 0-.98-.189-1.358-.566A1.851 1.851 0 010 13.075V1.924C0 1.396.188.944.565.566zm9.048 4.84A2.947 2.947 0 007.49 4.55c-.833 0-1.544.285-2.134.854-.589.57-.883 1.258-.883 2.066 0 .807.294 1.495.883 2.065.59.57 1.3.855 2.134.855a2.95 2.95 0 002.124-.855c.59-.57.884-1.258.884-2.065 0-.808-.295-1.496-.884-2.066zm-7.915 7.27c0 .169.059.31.176.425.117.113.257.17.42.17h10.44a.58.58 0 00.424-.17.576.576 0 00.171-.425V6.348h-1.377c.13.41.195.836.195 1.279 0 1.25-.455 2.316-1.367 3.198-.911.882-2.008 1.324-3.29 1.324a4.694 4.694 0 01-2.345-.606 4.56 4.56 0 01-1.699-1.646 4.327 4.327 0 01-.625-2.27c0-.443.065-.87.195-1.28H1.698v6.329zm0-8.721a.65.65 0 00.196.478c.13.13.29.196.478.196h1.7a.65.65 0 00.478-.196.65.65 0 00.195-.478V2.344a.656.656 0 00-.195-.474.643.643 0 00-.479-.2H2.372a.642.642 0 00-.478.2.655.655 0 00-.196.474v1.611z"/><defs><clipPath id="auclip0"><path transform="matrix(-1 0 0 1 15 0)" d="M0 0h15v15H0z"/></clipPath></defs></symbol><symbol viewBox="0 0 19 8" id="news_arrow" xmlns="http://www.w3.org/2000/svg"><path d="M18.759 4.354a.5.5 0 000-.708L15.577.464a.5.5 0 10-.707.708L17.698 4 14.87 6.828a.5.5 0 10.707.708l3.182-3.182zM.762 4.5h17.643v-1H.762v1z"/></symbol><symbol viewBox="0 0 32 32" id="news_arrow_menu" xmlns="http://www.w3.org/2000/svg"><path d="M22.134 32l3.733-3.733L13.6 16 25.867 3.733 22.134 0l-16 16 16 16z"/><defs><clipPath id="awclip0"><path transform="rotate(-180 16 16)" d="M0 0h32v32H0z"/></clipPath></defs></symbol><symbol viewBox="0 0 28 28" id="pdf" xmlns="http://www.w3.org/2000/svg"><path d="M27.992 12.797a.577.577 0 00-.03-.154c-.007-.019-.012-.037-.02-.055a.559.559 0 00-.112-.166l-3.33-3.33V5.833c0-.013-.006-.024-.008-.036a.6.6 0 00-.03-.15c-.006-.019-.01-.037-.02-.055a.581.581 0 00-.114-.171L19.078.17a.58.58 0 00-.171-.115c-.017-.008-.035-.013-.052-.019a.583.583 0 00-.154-.03C18.689.005 18.678 0 18.667 0H4.083A.584.584 0 003.5.583v8.509L.17 12.42v.001a.571.571 0 00-.112.166c-.008.018-.013.037-.02.055a.555.555 0 00-.03.154c-.002.013-.008.023-.008.036v11.084c0 .322.261.583.583.583H3.5v2.917c0 .322.261.583.583.583h19.834a.583.583 0 00.583-.583V24.5h2.917a.583.583 0 00.583-.583V12.833c0-.013-.006-.023-.008-.036zm-1.983-.547H24.5v-1.508l1.509 1.508zm-3.5-7H19.25V1.992l3.259 3.258zM4.667 1.167h13.416v4.666c0 .322.262.584.584.584h4.666v5.833H4.667V1.167zM3.5 10.742v1.508H1.992L3.5 10.742zm19.833 16.091H4.667V24.5h18.666v2.333zm3.5-3.5H1.167v-9.916h25.666v9.916z"/><path d="M10.648 15.587a1.644 1.644 0 00-.64-.342c-.238-.066-.47-.1-.694-.1H7.37v7.022h1.17V19.35h.834c.244 0 .482-.043.713-.129a1.68 1.68 0 00.615-.396c.179-.179.322-.402.432-.67.11-.268.164-.58.164-.937 0-.396-.061-.727-.184-.991a1.86 1.86 0 00-.466-.64zm-.748 2.5a.887.887 0 01-.685.291h-.674v-2.23h.674c.278 0 .506.085.685.257.178.172.267.446.267.823 0 .377-.089.663-.267.858zm8.022 4.08h1.2v-3.015h1.794v-1.021h-1.804v-1.914h1.953v-1.071h-3.143v7.02zm-3.878-7.021H12.28v7.02h1.755c.906 0 1.592-.305 2.058-.916.466-.612.7-1.473.7-2.584 0-1.11-.234-1.975-.7-2.593-.466-.618-1.148-.927-2.048-.927zm1.443 4.596a2.386 2.386 0 01-.322.769 1.391 1.391 0 01-.495.46 1.3 1.3 0 01-.625.154h-.565v-4.938h.565c.224 0 .433.051.625.154.191.102.357.256.495.46.14.206.247.463.322.774.076.311.115.675.115 1.091 0 .41-.039.768-.115 1.076z"/></symbol><symbol viewBox="0 0 13 12" id="rss" xmlns="http://www.w3.org/2000/svg"><path d="M1.998 12c.805 0 1.484-.63 1.484-1.406 0-.776-.68-1.43-1.484-1.43-.805 0-1.46.654-1.46 1.43 0 .775.655 1.406 1.46 1.406zM.903 7.031h.73c2.217 0 4.062 1.778 4.062 3.914v.703c0 .195.164.352.365.352h.73a.358.358 0 00.365-.352v-.703c0-2.912-2.5-5.32-5.522-5.32h-.73a.358.358 0 00-.364.352v.703c0 .194.163.351.364.351z"/><path d="M.903 4.219h.73c3.829 0 6.981 3.037 6.981 6.726v.703c0 .195.163.352.365.352h.73a.358.358 0 00.365-.352v-.703c0-4.465-3.806-8.133-8.44-8.133h-.73a.358.358 0 00-.365.352v.703c0 .194.163.352.364.352z"/><path d="M1.633 0h-.73A.358.358 0 00.54.352v.703c0 .194.163.351.364.351h.73c5.44 0 9.9 4.297 9.9 9.54v.702c0 .195.163.352.365.352h.73a.358.358 0 00.364-.352v-.703C12.992 4.926 7.88 0 1.633 0z"/><defs><clipPath id="ayclip0"><path transform="translate(.539)" d="M0 0h12.454v12H0z"/></clipPath></defs></symbol><symbol viewBox="0 0 21 21" id="search" xmlns="http://www.w3.org/2000/svg"><path d="M20.33 19.128l-5-5.198a8.452 8.452 0 001.99-5.451C17.32 3.804 13.516 0 8.84 0 4.167 0 .364 3.804.364 8.479c0 4.675 3.803 8.479 8.479 8.479 1.755 0 3.427-.53 4.857-1.535l5.036 5.238a1.1 1.1 0 00.797.339 1.107 1.107 0 00.797-1.872zM8.841 2.212a6.274 6.274 0 016.266 6.267 6.274 6.274 0 01-6.266 6.267 6.274 6.274 0 01-6.267-6.267 6.274 6.274 0 016.267-6.267z"/></symbol><symbol viewBox="0 0 16 16" id="twitter" xmlns="http://www.w3.org/2000/svg"><path d="M16 3.04c-.589.26-1.22.437-1.885.516a3.296 3.296 0 001.443-1.814 6.616 6.616 0 01-2.086.796A3.282 3.282 0 007.88 5.53a9.319 9.319 0 01-6.764-3.428 3.257 3.257 0 00-.444 1.65 3.28 3.28 0 001.46 2.73 3.283 3.283 0 01-1.487-.411v.04a3.286 3.286 0 002.632 3.22 3.324 3.324 0 01-.864.114 3.15 3.15 0 01-.618-.06 3.284 3.284 0 003.065 2.279 6.586 6.586 0 01-4.076 1.402c-.265 0-.526-.016-.783-.045a9.278 9.278 0 005.031 1.477c6.038 0 9.338-5 9.338-9.338l-.01-.425A6.555 6.555 0 0016 3.04z"/><defs><clipPath id="baclip0"><path d="M0 0h16v16H0z"/></clipPath></defs></symbol><symbol viewBox="0 0 20 20" id="vk" xmlns="http://www.w3.org/2000/svg"><path fill-rule="evenodd" clip-rule="evenodd" d="M17.213 11.537c.663.648 1.363 1.258 1.959 1.97.262.318.511.645.702 1.012.27.523.025 1.098-.444 1.13l-2.913-.002c-.752.062-1.351-.24-1.855-.754-.404-.41-.777-.848-1.165-1.273a2.756 2.756 0 00-.525-.466c-.397-.258-.743-.18-.97.236-.231.422-.284.889-.307 1.36-.03.685-.238.866-.927.897-1.473.07-2.871-.153-4.17-.896-1.144-.655-2.032-1.58-2.805-2.627C2.29 10.086 1.136 7.846.101 5.543c-.233-.519-.063-.797.51-.807.95-.019 1.9-.017 2.852-.001.387.005.642.227.792.592.514 1.264 1.143 2.467 1.933 3.582.21.297.425.594.73.803.338.232.595.155.754-.222.101-.238.145-.495.168-.75.075-.88.085-1.758-.047-2.635-.08-.546-.389-.9-.935-1.004-.278-.053-.237-.156-.102-.315.234-.275.455-.445.894-.445h3.293c.518.102.633.335.704.857l.003 3.657c-.006.202.1.802.464.935.292.095.483-.138.658-.322.788-.837 1.351-1.826 1.854-2.85.223-.45.415-.918.6-1.385.138-.347.355-.517.745-.51l3.17.003c.093 0 .188.002.28.017.533.091.68.32.515.842-.26.819-.766 1.5-1.26 2.185-.529.732-1.094 1.438-1.618 2.174-.482.671-.443 1.01.155 1.593z"/><defs><clipPath id="bbclip0"><path d="M0 0h20v20H0z"/></clipPath></defs></symbol><symbol viewBox="0 0 18 18" id="youtube" xmlns="http://www.w3.org/2000/svg"><path d="M17.235 4.005c-.488-.869-1.018-1.028-2.097-1.089-1.078-.073-3.788-.103-6.136-.103-2.352 0-5.063.03-6.14.102-1.077.062-1.608.22-2.1 1.09C.259 4.872 0 6.366 0 8.997v.009c0 2.619.259 4.124.762 4.982.492.869 1.022 1.026 2.099 1.1 1.078.062 3.789.1 6.141.1 2.348 0 5.058-.038 6.137-.1 1.079-.073 1.609-.23 2.097-1.099.508-.858.764-2.363.764-4.982v-.01c0-2.632-.256-4.126-.765-4.993zM6.75 12.375v-6.75L12.375 9 6.75 12.375z"/></symbol></svg>