<?xml version="1.0" encoding="utf-8"?><svg xmlns="http://www.w3.org/2000/svg" xmlns:xlink="http://www.w3.org/1999/xlink"><symbol viewBox="0 0 9 16" id="facebook" xmlns="http://www.w3.org/2000/svg"><path d="M8.325.003L6.25 0C3.919 0 2.412 1.546 2.412 3.938v1.815H.326A.326.326 0 000 6.08v2.63c0 .18.146.326.326.326h2.086v6.638c0 .18.146.326.327.326H5.46c.18 0 .327-.146.327-.326V9.036h2.439c.18 0 .326-.146.326-.326l.001-2.63a.327.327 0 00-.326-.327h-2.44V4.214c0-.74.176-1.115 1.14-1.115h1.397c.18 0 .326-.147.326-.327V.33a.326.326 0 00-.325-.327z"/></symbol><symbol viewBox="0 0 15 15" id="inst" xmlns="http://www.w3.org/2000/svg"><path d="M.565.566C.943.19 1.395 0 1.923 0h11.152c.527 0 .98.189 1.358.566.377.378.566.83.566 1.358v11.152c0 .527-.189.98-.566 1.357-.378.378-.83.567-1.358.567H1.923c-.527 0-.98-.189-1.358-.566A1.851 1.851 0 010 13.075V1.924C0 1.396.188.944.565.566zm9.048 4.84A2.947 2.947 0 007.49 4.55c-.833 0-1.544.285-2.134.854-.589.57-.883 1.258-.883 2.066 0 .807.294 1.495.883 2.065.59.57 1.3.855 2.134.855a2.95 2.95 0 002.124-.855c.59-.57.884-1.258.884-2.065 0-.808-.295-1.496-.884-2.066zm-7.915 7.27c0 .169.059.31.176.425.117.113.257.17.42.17h10.44a.58.58 0 00.424-.17.576.576 0 00.171-.425V6.348h-1.377c.13.41.195.836.195 1.279 0 1.25-.455 2.316-1.367 3.198-.911.882-2.008 1.324-3.29 1.324a4.694 4.694 0 01-2.345-.606 4.56 4.56 0 01-1.699-1.646 4.327 4.327 0 01-.625-2.27c0-.443.065-.87.195-1.28H1.698v6.329zm0-8.721a.65.65 0 00.196.478c.13.13.29.196.478.196h1.7a.65.65 0 00.478-.196.65.65 0 00.195-.478V2.344a.656.656 0 00-.195-.474.643.643 0 00-.479-.2H2.372a.642.642 0 00-.478.2.655.655 0 00-.196.474v1.611z"/><defs><clipPath id="bclip0"><path transform="matrix(-1 0 0 1 15 0)" d="M0 0h15v15H0z"/></clipPath></defs></symbol><symbol viewBox="0 0 21 21" id="search" xmlns="http://www.w3.org/2000/svg"><path d="M20.33 19.128l-5-5.198a8.452 8.452 0 001.99-5.451C17.32 3.804 13.516 0 8.84 0 4.167 0 .364 3.804.364 8.479c0 4.675 3.803 8.479 8.479 8.479 1.755 0 3.427-.53 4.857-1.535l5.036 5.238a1.1 1.1 0 00.797.339 1.107 1.107 0 00.797-1.872zM8.841 2.212a6.274 6.274 0 016.266 6.267 6.274 6.274 0 01-6.266 6.267 6.274 6.274 0 01-6.267-6.267 6.274 6.274 0 016.267-6.267z"/></symbol><symbol viewBox="0 0 16 16" id="twitter" xmlns="http://www.w3.org/2000/svg"><path d="M16 3.04c-.589.26-1.22.437-1.885.516a3.296 3.296 0 001.443-1.814 6.616 6.616 0 01-2.086.796A3.282 3.282 0 007.88 5.53a9.319 9.319 0 01-6.764-3.428 3.257 3.257 0 00-.444 1.65 3.28 3.28 0 001.46 2.73 3.283 3.283 0 01-1.487-.411v.04a3.286 3.286 0 002.632 3.22 3.324 3.324 0 01-.864.114 3.15 3.15 0 01-.618-.06 3.284 3.284 0 003.065 2.279 6.586 6.586 0 01-4.076 1.402c-.265 0-.526-.016-.783-.045a9.278 9.278 0 005.031 1.477c6.038 0 9.338-5 9.338-9.338l-.01-.425A6.555 6.555 0 0016 3.04z"/><defs><clipPath id="dclip0"><path d="M0 0h16v16H0z"/></clipPath></defs></symbol><symbol viewBox="0 0 20 20" id="vk" xmlns="http://www.w3.org/2000/svg"><path fill-rule="evenodd" clip-rule="evenodd" d="M17.213 11.537c.663.648 1.363 1.258 1.959 1.97.262.318.511.645.702 1.012.27.523.025 1.098-.444 1.13l-2.913-.002c-.752.062-1.351-.24-1.855-.754-.404-.41-.777-.848-1.165-1.273a2.756 2.756 0 00-.525-.466c-.397-.258-.743-.18-.97.236-.231.422-.284.889-.307 1.36-.03.685-.238.866-.927.897-1.473.07-2.871-.153-4.17-.896-1.144-.655-2.032-1.58-2.805-2.627C2.29 10.086 1.136 7.846.101 5.543c-.233-.519-.063-.797.51-.807.95-.019 1.9-.017 2.852-.001.387.005.642.227.792.592.514 1.264 1.143 2.467 1.933 3.582.21.297.425.594.73.803.338.232.595.155.754-.222.101-.238.145-.495.168-.75.075-.88.085-1.758-.047-2.635-.08-.546-.389-.9-.935-1.004-.278-.053-.237-.156-.102-.315.234-.275.455-.445.894-.445h3.293c.518.102.633.335.704.857l.003 3.657c-.006.202.1.802.464.935.292.095.483-.138.658-.322.788-.837 1.351-1.826 1.854-2.85.223-.45.415-.918.6-1.385.138-.347.355-.517.745-.51l3.17.003c.093 0 .188.002.28.017.533.091.68.32.515.842-.26.819-.766 1.5-1.26 2.185-.529.732-1.094 1.438-1.618 2.174-.482.671-.443 1.01.155 1.593z"/><defs><clipPath id="eclip0"><path d="M0 0h20v20H0z"/></clipPath></defs></symbol><symbol viewBox="0 0 18 18" id="youtube" xmlns="http://www.w3.org/2000/svg"><path d="M17.235 4.005c-.488-.869-1.018-1.028-2.097-1.089-1.078-.073-3.788-.103-6.136-.103-2.352 0-5.063.03-6.14.102-1.077.062-1.608.22-2.1 1.09C.259 4.872 0 6.366 0 8.997v.009c0 2.619.259 4.124.762 4.982.492.869 1.022 1.026 2.099 1.1 1.078.062 3.789.1 6.141.1 2.348 0 5.058-.038 6.137-.1 1.079-.073 1.609-.23 2.097-1.099.508-.858.764-2.363.764-4.982v-.01c0-2.632-.256-4.126-.765-4.993zM6.75 12.375v-6.75L12.375 9 6.75 12.375z"/></symbol></svg>