<?xml version="1.0" encoding="utf-8"?><svg xmlns="http://www.w3.org/2000/svg" xmlns:xlink="http://www.w3.org/1999/xlink"><symbol viewBox="0 0 7 8" id="calendar_arrow" xmlns="http://www.w3.org/2000/svg"><path d="M6.644 4L.417 7.464V.536L6.644 4z"/></symbol><symbol viewBox="0 0 153 29" id="dorohov" xmlns="http://www.w3.org/2000/svg"><path d="M4.303 19.13c-1.127 0-1.972-.316-2.535-.949-.563-.641-.867-1.5-.91-2.574a34.961 34.961 0 01-.013-1.144c0-.537.004-.927.013-1.17.043-1.075.347-1.928.91-2.561.563-.641 1.408-.962 2.535-.962.771 0 1.413.143 1.924.429.511.277.888.633 1.131 1.066.251.425.39.862.416 1.313v.026a.21.21 0 01-.078.169.294.294 0 01-.195.065h-.26c-.156 0-.251-.091-.286-.273-.165-.737-.464-1.257-.897-1.56-.433-.303-1.018-.455-1.755-.455-.815 0-1.447.23-1.898.689-.45.46-.693 1.166-.728 2.119-.009.234-.013.594-.013 1.079s.004.854.013 1.105c.035.953.277 1.66.728 2.119.45.46 1.083.689 1.898.689.737 0 1.322-.152 1.755-.455.433-.303.732-.823.897-1.56.035-.182.13-.273.286-.273h.26c.078 0 .143.026.195.078.06.043.087.104.078.182-.026.45-.165.893-.416 1.326-.243.425-.62.78-1.131 1.066-.511.277-1.153.416-1.924.416zm4.71 1.3a.281.281 0 01-.207-.078.281.281 0 01-.078-.208v-1.612a.28.28 0 01.078-.208.281.281 0 01.208-.078h.039c.806-.017 1.209-1.391 1.209-4.121v-1.599a.28.28 0 01.078-.208.281.281 0 01.208-.078h3.744c.086 0 .156.026.208.078a.281.281 0 01.078.208v5.694h.637c.086 0 .156.026.208.078a.281.281 0 01.078.208v1.638a.281.281 0 01-.078.208.281.281 0 01-.208.078h-.221a.281.281 0 01-.208-.078.281.281 0 01-.078-.208V19H9.52v1.144a.281.281 0 01-.078.208.281.281 0 01-.208.078h-.221zm4.772-2.21v-5.226h-2.73v1.222c0 1.967-.286 3.31-.858 4.03l3.588-.026zm5.735.91c-.823 0-1.486-.269-1.989-.806-.503-.546-.789-1.274-.858-2.184l-.013-.52.013-.52c.07-.901.351-1.625.845-2.171.503-.546 1.17-.819 2.002-.819.901 0 1.603.299 2.106.897.511.598.767 1.417.767 2.457v.195a.26.26 0 01-.091.208.281.281 0 01-.208.078h-4.628v.13c.017.407.108.789.273 1.144.173.347.412.628.715.845.303.208.659.312 1.066.312.477 0 .862-.091 1.157-.273.303-.19.52-.381.65-.572.078-.104.134-.169.169-.195a.456.456 0 01.221-.039h.208c.078 0 .143.022.195.065a.21.21 0 01.078.169c0 .182-.117.403-.351.663-.225.251-.542.472-.949.663a3.343 3.343 0 01-1.378.273zm2.08-3.913v-.052c0-.667-.19-1.218-.572-1.651-.373-.433-.875-.65-1.508-.65s-1.135.217-1.508.65c-.364.433-.546.984-.546 1.651v.052H21.6zM23.628 19a.328.328 0 01-.221-.078.328.328 0 01-.078-.221v-.208c0-.078.022-.143.065-.195a.265.265 0 01.195-.078c.442 0 .78-.32 1.014-.962.234-.641.35-1.686.35-3.133v-1.599c0-.087.027-.156.079-.208a.281.281 0 01.208-.078h3.718a.28.28 0 01.208.078.281.281 0 01.078.208v6.188a.281.281 0 01-.078.208.281.281 0 01-.208.078h-.221a.281.281 0 01-.208-.078.281.281 0 01-.078-.208v-5.72h-2.704v1.222c0 3.19-.706 4.784-2.12 4.784zm9.536.13c-.416 0-.802-.087-1.157-.26a2.287 2.287 0 01-.858-.702 1.654 1.654 0 01-.312-.975c0-.572.23-1.04.689-1.404.468-.364 1.096-.598 1.885-.702l2.054-.286v-.455c0-.477-.147-.84-.442-1.092-.286-.26-.728-.39-1.326-.39-.442 0-.806.087-1.092.26-.277.173-.455.381-.533.624a.48.48 0 01-.13.221.284.284 0 01-.182.052h-.182a.31.31 0 01-.208-.078.31.31 0 01-.078-.208c0-.19.087-.412.26-.663.173-.26.442-.485.806-.676.364-.19.81-.286 1.339-.286.927 0 1.586.221 1.976.663.39.442.585.98.585 1.612v4.329a.281.281 0 01-.078.208.281.281 0 01-.208.078h-.221a.281.281 0 01-.208-.078.281.281 0 01-.078-.208v-.611c-.19.286-.472.529-.845.728-.364.2-.85.299-1.456.299zm.13-.754c.633 0 1.153-.208 1.56-.624.407-.416.611-1.014.611-1.794v-.442l-1.677.234c-.71.095-1.248.26-1.612.494-.364.234-.546.529-.546.884 0 .399.165.706.494.923a2.12 2.12 0 001.17.325zM38.6 19a.281.281 0 01-.208-.078.281.281 0 01-.078-.208v-6.188a.28.28 0 01.078-.208.281.281 0 01.208-.078h.22c.087 0 .157.026.209.078a.281.281 0 01.078.208v2.639h4.056v-2.639a.28.28 0 01.078-.208.281.281 0 01.208-.078h.22c.087 0 .157.026.209.078a.281.281 0 01.078.208v6.188a.281.281 0 01-.078.208.281.281 0 01-.208.078h-.221a.281.281 0 01-.208-.078.281.281 0 01-.078-.208v-2.795h-4.056v2.795a.281.281 0 01-.078.208.281.281 0 01-.208.078H38.6zm10.032.13c-.901 0-1.603-.273-2.106-.819-.494-.555-.754-1.27-.78-2.145l-.013-.546.013-.546c.026-.875.286-1.586.78-2.132.502-.555 1.204-.832 2.106-.832.901 0 1.599.277 2.093.832.502.546.767 1.257.793 2.132.008.087.013.269.013.546s-.005.46-.013.546c-.026.875-.29 1.59-.793 2.145-.494.546-1.192.819-2.093.819zm0-.754c.615 0 1.11-.195 1.482-.585.381-.399.585-.962.61-1.69.01-.087.014-.247.014-.481 0-.234-.005-.394-.013-.481-.026-.728-.23-1.287-.611-1.677-.373-.399-.867-.598-1.482-.598s-1.114.2-1.495.598c-.373.39-.572.949-.598 1.677l-.013.481.013.481c.026.728.225 1.291.598 1.69.381.39.88.585 1.495.585zm8.313.624a.281.281 0 01-.209-.078.281.281 0 01-.078-.208v-6.188a.28.28 0 01.078-.208.281.281 0 01.209-.078h2.56c.703 0 1.248.16 1.639.481.398.32.598.75.598 1.287 0 .39-.074.689-.221.897-.14.208-.369.386-.69.533.33.121.585.342.767.663.183.32.273.659.273 1.014 0 .607-.208 1.075-.623 1.404-.408.32-.967.481-1.677.481h-2.627zm2.43-3.783c.477 0 .858-.108 1.145-.325a1.05 1.05 0 00.428-.884c0-.364-.138-.624-.416-.78-.268-.156-.654-.234-1.156-.234h-1.924v2.223h1.924zm.092 3.029c.494 0 .883-.095 1.17-.286a.962.962 0 00.441-.845c0-.39-.134-.676-.403-.858-.26-.19-.662-.286-1.208-.286h-2.015v2.275h2.015zm44.735-5.328V6.553h2.657c1.967 0 3.417 1.183 3.417 3.165s-1.415 3.165-3.382 3.165h-2.692v.035zm4.417-3.165c0-.974-.586-1.739-1.725-1.739h-1.036v3.478h1.036c1.069 0 1.725-.8 1.725-1.74zm2.277 0c0-1.948 1.45-3.269 3.382-3.269 1.933 0 3.348 1.356 3.348 3.27 0 1.912-1.45 3.268-3.348 3.268-1.967 0-3.382-1.356-3.382-3.269zm5.073 0c0-1.043-.655-1.843-1.691-1.843-1.035 0-1.725.8-1.725 1.843s.656 1.843 1.725 1.843c1.001 0 1.691-.835 1.691-1.843zm6.143 3.165l-1.07-2.122h-.828v2.122h-1.622V6.553h3.14c1.38 0 2.174.94 2.174 2.122 0 1.113-.656 1.704-1.242 1.912l1.277 2.33h-1.829zm.172-4.243c0-.418-.345-.661-.794-.661h-1.276V9.37h1.276c.415 0 .794-.243.794-.695zm2.278 1.078c0-1.948 1.449-3.269 3.381-3.269 1.933 0 3.348 1.356 3.348 3.27 0 1.912-1.45 3.268-3.348 3.268-1.932 0-3.381-1.356-3.381-3.269zm5.107 0c0-1.043-.656-1.843-1.691-1.843-1.035 0-1.726.8-1.726 1.843s.656 1.843 1.726 1.843c1 0 1.691-.835 1.691-1.843zm6.832 3.165v-2.54h-2.622v2.54h-1.622V6.553h1.622v2.4h2.622V6.588h1.622v6.33h-1.622zm2.588-3.165c0-1.948 1.449-3.269 3.382-3.269s3.348 1.356 3.348 3.27c0 1.912-1.45 3.268-3.348 3.268-1.933 0-3.382-1.356-3.382-3.269zm5.073 0c0-1.043-.656-1.843-1.725-1.843-1.036 0-1.726.8-1.726 1.843s.655 1.843 1.726 1.843c1.069 0 1.725-.835 1.725-1.843zm4.073 3.165l-2.382-6.365h1.829l1.552 4.59 1.553-4.59h1.83l-2.382 6.33h-2v.035zm-44.033 9.494v-6.33h2.657c1.967 0 3.417 1.183 3.417 3.165 0 1.983-1.415 3.165-3.382 3.165h-2.692zm4.417-3.165c0-.973-.586-1.738-1.725-1.738h-1.036v3.477h1.036c1.069 0 1.725-.8 1.725-1.739zm2.623 3.165v-6.33h4.589v1.427h-3.002v.973h2.933v1.426h-2.933v1.078h3.002v1.426h-4.589zm5.314-.869l.862-1.218a2.815 2.815 0 002.002.835c.552 0 .897-.209.897-.522 0-.87-3.554-.174-3.554-2.608 0-1.078.897-2.017 2.519-2.017 1 0 1.898.313 2.553.87l-.897 1.182c-.518-.452-1.208-.66-1.829-.66-.483 0-.69.173-.69.451 0 .8 3.554.209 3.554 2.574 0 1.286-.931 2.121-2.622 2.121-1.277 0-2.174-.417-2.795-1.008zm6.349.869v-6.33h1.622v6.33h-1.622zm2.588-3.165c0-2.017 1.519-3.269 3.416-3.269 1.415 0 2.243.765 2.692 1.53l-1.346.696c-.241-.417-.724-.8-1.346-.8-1.035 0-1.759.8-1.759 1.843 0 1.044.724 1.844 1.759 1.844.449 0 .932-.174 1.174-.383v-.487h-1.415v-1.426h3.037v2.54c-.691.764-1.588 1.25-2.796 1.25-1.863-.034-3.416-1.32-3.416-3.338zm11.63 3.165l-2.657-3.651v3.686h-1.622v-6.364h1.656l2.554 3.478v-3.478h1.622v6.33h-1.553zM81.116.78H70.35v27.37h10.835c9.11 0 14.977-5.39 14.977-13.702C96.127 6.136 90.26.78 81.115.78zm-.276 21.875h-4.797V6.658h4.866c5.625 0 9.559 2.226 9.559 7.825 0 4.486-3.59 8.172-9.628 8.172z"/><path d="M81.944 11.214h-1.242v6.503h1.242c2.45 0 3.9-1.495 3.9-3.338-.035-2.261-1.622-3.165-3.9-3.165z"/></symbol><symbol viewBox="0 0 9 16" id="facebook" xmlns="http://www.w3.org/2000/svg"><path d="M8.325.003L6.25 0C3.919 0 2.412 1.546 2.412 3.938v1.815H.326A.326.326 0 000 6.08v2.63c0 .18.146.326.326.326h2.086v6.638c0 .18.146.326.327.326H5.46c.18 0 .327-.146.327-.326V9.036h2.439c.18 0 .326-.146.326-.326l.001-2.63a.327.327 0 00-.326-.327h-2.44V4.214c0-.74.176-1.115 1.14-1.115h1.397c.18 0 .326-.147.326-.327V.33a.326.326 0 00-.325-.327z"/></symbol><symbol viewBox="0 0 15 15" id="inst" xmlns="http://www.w3.org/2000/svg"><path d="M.565.566C.943.19 1.395 0 1.923 0h11.152c.527 0 .98.189 1.358.566.377.378.566.83.566 1.358v11.152c0 .527-.189.98-.566 1.357-.378.378-.83.567-1.358.567H1.923c-.527 0-.98-.189-1.358-.566A1.851 1.851 0 010 13.075V1.924C0 1.396.188.944.565.566zm9.048 4.84A2.947 2.947 0 007.49 4.55c-.833 0-1.544.285-2.134.854-.589.57-.883 1.258-.883 2.066 0 .807.294 1.495.883 2.065.59.57 1.3.855 2.134.855a2.95 2.95 0 002.124-.855c.59-.57.884-1.258.884-2.065 0-.808-.295-1.496-.884-2.066zm-7.915 7.27c0 .169.059.31.176.425.117.113.257.17.42.17h10.44a.58.58 0 00.424-.17.576.576 0 00.171-.425V6.348h-1.377c.13.41.195.836.195 1.279 0 1.25-.455 2.316-1.367 3.198-.911.882-2.008 1.324-3.29 1.324a4.694 4.694 0 01-2.345-.606 4.56 4.56 0 01-1.699-1.646 4.327 4.327 0 01-.625-2.27c0-.443.065-.87.195-1.28H1.698v6.329zm0-8.721a.65.65 0 00.196.478c.13.13.29.196.478.196h1.7a.65.65 0 00.478-.196.65.65 0 00.195-.478V2.344a.656.656 0 00-.195-.474.643.643 0 00-.479-.2H2.372a.642.642 0 00-.478.2.655.655 0 00-.196.474v1.611z"/><defs><clipPath id="dclip0"><path transform="matrix(-1 0 0 1 15 0)" d="M0 0h15v15H0z"/></clipPath></defs></symbol><symbol viewBox="0 0 19 8" id="news_arrow" xmlns="http://www.w3.org/2000/svg"><path d="M18.759 4.354a.5.5 0 000-.708L15.577.464a.5.5 0 10-.707.708L17.698 4 14.87 6.828a.5.5 0 10.707.708l3.182-3.182zM.762 4.5h17.643v-1H.762v1z"/></symbol><symbol viewBox="0 0 28 28" id="pdf" xmlns="http://www.w3.org/2000/svg"><path d="M27.992 12.797a.577.577 0 00-.03-.154c-.007-.019-.012-.037-.02-.055a.559.559 0 00-.112-.166l-3.33-3.33V5.833c0-.013-.006-.024-.008-.036a.6.6 0 00-.03-.15c-.006-.019-.01-.037-.02-.055a.581.581 0 00-.114-.171L19.078.17a.58.58 0 00-.171-.115c-.017-.008-.035-.013-.052-.019a.583.583 0 00-.154-.03C18.689.005 18.678 0 18.667 0H4.083A.584.584 0 003.5.583v8.509L.17 12.42v.001a.571.571 0 00-.112.166c-.008.018-.013.037-.02.055a.555.555 0 00-.03.154c-.002.013-.008.023-.008.036v11.084c0 .322.261.583.583.583H3.5v2.917c0 .322.261.583.583.583h19.834a.583.583 0 00.583-.583V24.5h2.917a.583.583 0 00.583-.583V12.833c0-.013-.006-.023-.008-.036zm-1.983-.547H24.5v-1.508l1.509 1.508zm-3.5-7H19.25V1.992l3.259 3.258zM4.667 1.167h13.416v4.666c0 .322.262.584.584.584h4.666v5.833H4.667V1.167zM3.5 10.742v1.508H1.992L3.5 10.742zm19.833 16.091H4.667V24.5h18.666v2.333zm3.5-3.5H1.167v-9.916h25.666v9.916z"/><path d="M10.648 15.587a1.644 1.644 0 00-.64-.342c-.238-.066-.47-.1-.694-.1H7.37v7.022h1.17V19.35h.834c.244 0 .482-.043.713-.129a1.68 1.68 0 00.615-.396c.179-.179.322-.402.432-.67.11-.268.164-.58.164-.937 0-.396-.061-.727-.184-.991a1.86 1.86 0 00-.466-.64zm-.748 2.5a.887.887 0 01-.685.291h-.674v-2.23h.674c.278 0 .506.085.685.257.178.172.267.446.267.823 0 .377-.089.663-.267.858zm8.022 4.08h1.2v-3.015h1.794v-1.021h-1.804v-1.914h1.953v-1.071h-3.143v7.02zm-3.878-7.021H12.28v7.02h1.755c.906 0 1.592-.305 2.058-.916.466-.612.7-1.473.7-2.584 0-1.11-.234-1.975-.7-2.593-.466-.618-1.148-.927-2.048-.927zm1.443 4.596a2.386 2.386 0 01-.322.769 1.391 1.391 0 01-.495.46 1.3 1.3 0 01-.625.154h-.565v-4.938h.565c.224 0 .433.051.625.154.191.102.357.256.495.46.14.206.247.463.322.774.076.311.115.675.115 1.091 0 .41-.039.768-.115 1.076z"/></symbol><symbol viewBox="0 0 13 12" id="rss" xmlns="http://www.w3.org/2000/svg"><path d="M1.998 12c.805 0 1.484-.63 1.484-1.406 0-.776-.68-1.43-1.484-1.43-.805 0-1.46.654-1.46 1.43 0 .775.655 1.406 1.46 1.406zM.903 7.031h.73c2.217 0 4.062 1.778 4.062 3.914v.703c0 .195.164.352.365.352h.73a.358.358 0 00.365-.352v-.703c0-2.912-2.5-5.32-5.522-5.32h-.73a.358.358 0 00-.364.352v.703c0 .194.163.351.364.351z"/><path d="M.903 4.219h.73c3.829 0 6.981 3.037 6.981 6.726v.703c0 .195.163.352.365.352h.73a.358.358 0 00.365-.352v-.703c0-4.465-3.806-8.133-8.44-8.133h-.73a.358.358 0 00-.365.352v.703c0 .194.163.352.364.352z"/><path d="M1.633 0h-.73A.358.358 0 00.54.352v.703c0 .194.163.351.364.351h.73c5.44 0 9.9 4.297 9.9 9.54v.702c0 .195.163.352.365.352h.73a.358.358 0 00.364-.352v-.703C12.992 4.926 7.88 0 1.633 0z"/><defs><clipPath id="gclip0"><path transform="translate(.539)" d="M0 0h12.454v12H0z"/></clipPath></defs></symbol><symbol viewBox="0 0 21 21" id="search" xmlns="http://www.w3.org/2000/svg"><path d="M20.33 19.128l-5-5.198a8.452 8.452 0 001.99-5.451C17.32 3.804 13.516 0 8.84 0 4.167 0 .364 3.804.364 8.479c0 4.675 3.803 8.479 8.479 8.479 1.755 0 3.427-.53 4.857-1.535l5.036 5.238a1.1 1.1 0 00.797.339 1.107 1.107 0 00.797-1.872zM8.841 2.212a6.274 6.274 0 016.266 6.267 6.274 6.274 0 01-6.266 6.267 6.274 6.274 0 01-6.267-6.267 6.274 6.274 0 016.267-6.267z"/></symbol><symbol viewBox="0 0 16 16" id="twitter" xmlns="http://www.w3.org/2000/svg"><path d="M16 3.04c-.589.26-1.22.437-1.885.516a3.296 3.296 0 001.443-1.814 6.616 6.616 0 01-2.086.796A3.282 3.282 0 007.88 5.53a9.319 9.319 0 01-6.764-3.428 3.257 3.257 0 00-.444 1.65 3.28 3.28 0 001.46 2.73 3.283 3.283 0 01-1.487-.411v.04a3.286 3.286 0 002.632 3.22 3.324 3.324 0 01-.864.114 3.15 3.15 0 01-.618-.06 3.284 3.284 0 003.065 2.279 6.586 6.586 0 01-4.076 1.402c-.265 0-.526-.016-.783-.045a9.278 9.278 0 005.031 1.477c6.038 0 9.338-5 9.338-9.338l-.01-.425A6.555 6.555 0 0016 3.04z"/><defs><clipPath id="iclip0"><path d="M0 0h16v16H0z"/></clipPath></defs></symbol><symbol viewBox="0 0 20 20" id="vk" xmlns="http://www.w3.org/2000/svg"><path fill-rule="evenodd" clip-rule="evenodd" d="M17.213 11.537c.663.648 1.363 1.258 1.959 1.97.262.318.511.645.702 1.012.27.523.025 1.098-.444 1.13l-2.913-.002c-.752.062-1.351-.24-1.855-.754-.404-.41-.777-.848-1.165-1.273a2.756 2.756 0 00-.525-.466c-.397-.258-.743-.18-.97.236-.231.422-.284.889-.307 1.36-.03.685-.238.866-.927.897-1.473.07-2.871-.153-4.17-.896-1.144-.655-2.032-1.58-2.805-2.627C2.29 10.086 1.136 7.846.101 5.543c-.233-.519-.063-.797.51-.807.95-.019 1.9-.017 2.852-.001.387.005.642.227.792.592.514 1.264 1.143 2.467 1.933 3.582.21.297.425.594.73.803.338.232.595.155.754-.222.101-.238.145-.495.168-.75.075-.88.085-1.758-.047-2.635-.08-.546-.389-.9-.935-1.004-.278-.053-.237-.156-.102-.315.234-.275.455-.445.894-.445h3.293c.518.102.633.335.704.857l.003 3.657c-.006.202.1.802.464.935.292.095.483-.138.658-.322.788-.837 1.351-1.826 1.854-2.85.223-.45.415-.918.6-1.385.138-.347.355-.517.745-.51l3.17.003c.093 0 .188.002.28.017.533.091.68.32.515.842-.26.819-.766 1.5-1.26 2.185-.529.732-1.094 1.438-1.618 2.174-.482.671-.443 1.01.155 1.593z"/><defs><clipPath id="jclip0"><path d="M0 0h20v20H0z"/></clipPath></defs></symbol><symbol viewBox="0 0 18 18" id="youtube" xmlns="http://www.w3.org/2000/svg"><path d="M17.235 4.005c-.488-.869-1.018-1.028-2.097-1.089-1.078-.073-3.788-.103-6.136-.103-2.352 0-5.063.03-6.14.102-1.077.062-1.608.22-2.1 1.09C.259 4.872 0 6.366 0 8.997v.009c0 2.619.259 4.124.762 4.982.492.869 1.022 1.026 2.099 1.1 1.078.062 3.789.1 6.141.1 2.348 0 5.058-.038 6.137-.1 1.079-.073 1.609-.23 2.097-1.099.508-.858.764-2.363.764-4.982v-.01c0-2.632-.256-4.126-.765-4.993zM6.75 12.375v-6.75L12.375 9 6.75 12.375z"/></symbol></svg>