<svg width="26" height="26" viewBox="0 0 26 26" fill="none" xmlns="http://www.w3.org/2000/svg">
<g clip-path="url(#clip0)">
<path d="M1.41101 11.187H11.1861V1.41186C11.1861 0.966558 11.7908 0.00100708 13.0001 0.00100708C14.2093 0.00100708 14.814 0.966611 14.814 1.41186V11.187H24.5892C25.0344 11.187 26 11.7917 26 13.0009C26 14.2101 25.0344 14.8149 24.5892 14.8149H14.814V24.5901C14.814 25.0352 14.2093 26.0009 13 26.0009C11.7907 26.0009 11.186 25.0352 11.186 24.5901V14.8149H1.41085C0.965654 14.8149 0 14.2102 0 13.0009C0 11.7916 0.965761 11.187 1.41101 11.187Z" fill="#015CC8"/>
</g>
<defs>
<clipPath id="clip0">
<rect width="26" height="26" fill="white" transform="matrix(-1 0 0 1 26 0)"/>
</clipPath>
</defs>
</svg>
