<svg width="19" height="18" viewBox="0 0 19 18" fill="none" xmlns="http://www.w3.org/2000/svg">
<g clip-path="url(#clip0)">
<path d="M18.9033 0.737184C18.8187 0.666906 18.6983 0.650601 18.5963 0.695427L0.164343 8.80872C0.0651111 8.85241 0.00120979 8.94621 1.69631e-05 9.04985C-0.00117586 9.15349 0.0606238 9.24857 0.15889 9.29426L5.37511 11.7194C5.47077 11.7639 5.58482 11.7539 5.67025 11.6934L10.7419 8.10233L6.76044 11.9822C6.70364 12.0375 6.67467 12.1133 6.68092 12.1903L7.07733 17.0812C7.08614 17.1896 7.16282 17.2822 7.27182 17.3162C7.30096 17.3252 7.33089 17.3296 7.36049 17.3296C7.44166 17.3296 7.52061 17.2966 7.57554 17.2364L10.3441 14.197L13.7667 15.7462C13.841 15.7799 13.927 15.7813 14.0025 15.7502C14.078 15.719 14.1354 15.6584 14.1601 15.584L18.987 1.02007C19.0207 0.918368 18.9878 0.807462 18.9033 0.737184Z" fill="#015CC8"/>
</g>
<defs>
<clipPath id="clip0">
<rect width="19" height="18" fill="white"/>
</clipPath>
</defs>
</svg>
