<svg width="19" height="19" viewBox="0 0 19 19" fill="none" xmlns="http://www.w3.org/2000/svg">
<path d="M18.9909 14.9901C19.0312 15.2985 18.9372 15.5667 18.7093 15.7946L16.0342 18.4496C15.9135 18.5837 15.756 18.6978 15.5615 18.7915C15.3671 18.8854 15.176 18.9458 14.9884 18.9726C14.975 18.9726 14.9346 18.976 14.8676 18.9827C14.8006 18.9894 14.7135 18.9928 14.6062 18.9928C14.3513 18.9928 13.939 18.9492 13.3691 18.862C12.7992 18.7748 12.1019 18.5602 11.2773 18.2184C10.4525 17.8764 9.51725 17.3635 8.47136 16.6797C7.42547 15.9959 6.31246 15.0572 5.13244 13.8637C4.19379 12.9385 3.41605 12.0534 2.79923 11.2087C2.1824 10.3639 1.68625 9.58278 1.31079 8.86539C0.935299 8.14799 0.653704 7.49764 0.465973 6.91433C0.278243 6.33103 0.150855 5.82818 0.0838082 5.40579C0.0167616 4.98339 -0.010057 4.65151 0.00335233 4.41014C0.0167616 4.16878 0.0234663 4.03468 0.0234663 4.00787C0.0502849 3.82014 0.110627 3.62905 0.204492 3.43462C0.298357 3.24018 0.412336 3.08262 0.546429 2.96194L3.22159 0.286783C3.40932 0.0990531 3.62386 0.00518799 3.86523 0.00518799C4.03955 0.00518799 4.19376 0.0554729 4.32785 0.156043C4.46195 0.256612 4.57593 0.380649 4.66979 0.528151L6.82198 4.61128C6.94267 4.82583 6.97619 5.0605 6.92255 5.31527C6.86892 5.57005 6.75494 5.7846 6.58062 5.95892L5.59503 6.9445C5.56821 6.97132 5.54475 7.0149 5.52463 7.07524C5.50452 7.13559 5.49446 7.18587 5.49446 7.2261C5.5481 7.50769 5.66878 7.82952 5.85651 8.19157C6.01743 8.51339 6.2655 8.90561 6.60073 9.36824C6.93596 9.83086 7.41199 10.3638 8.02882 10.9673C8.63224 11.5842 9.16861 12.0635 9.63794 12.4055C10.1072 12.7473 10.4995 12.9988 10.8146 13.1597C11.1298 13.3206 11.3711 13.4178 11.5387 13.4513L11.7901 13.5016C11.8169 13.5016 11.8606 13.4915 11.9208 13.4714C11.9812 13.4513 12.0248 13.4278 12.0516 13.401L13.1981 12.2344C13.4396 12.0199 13.721 11.9126 14.0429 11.9126C14.2709 11.9126 14.4518 11.9528 14.5859 12.0333H14.606L18.488 14.3263C18.7697 14.5007 18.9373 14.7219 18.9909 14.9901Z" fill="#015CC8"/>
</svg>
