<svg width="19" height="19" viewBox="0 0 19 19" fill="none" xmlns="http://www.w3.org/2000/svg">
<g clip-path="url(#clip0)">
<path d="M5.50324 5.24792C6.58662 5.47413 7.7473 5.60804 8.94336 5.63988V8.94326H5.02815C5.06422 7.64213 5.22656 6.39121 5.50324 5.24792Z" fill="#015CC8"/>
<path d="M15.0858 8.94324C15.0491 7.55452 14.8753 6.21431 14.5775 4.98418C15.5528 4.71043 16.4451 4.35651 17.2189 3.93115C18.2787 5.39365 18.8955 7.11996 19 8.94324H15.0858Z" fill="#015CC8"/>
<path d="M15.0858 10.0567H19C18.8955 11.88 18.2787 13.6063 17.2189 15.0688C16.4451 14.6434 15.5528 14.2895 14.5775 14.0158C14.8753 12.7856 15.0491 11.4454 15.0858 10.0567Z" fill="#015CC8"/>
<path d="M7.89913 0.643349C8.23953 0.355384 8.58907 0.161391 8.94336 0.0618896V4.52636C7.85017 4.49593 6.79262 4.37605 5.80673 4.17564C5.98766 3.62265 6.19794 3.10324 6.43655 2.62607C6.86521 1.76882 7.3573 1.1017 7.89913 0.643349Z" fill="#015CC8"/>
<path d="M14.2782 15.086C15.0931 15.3149 15.8421 15.6035 16.5 15.9463C16.4117 16.042 16.3217 16.1366 16.2291 16.2293C15.1588 17.2995 13.8786 18.0833 12.4812 18.5425C12.8726 18.0798 13.2346 17.5211 13.5592 16.8719C13.8339 16.3225 14.0741 15.7237 14.2782 15.086Z" fill="#015CC8"/>
<path d="M12.5635 2.62607C12.8021 3.10324 13.0124 3.62265 13.1934 4.17564C12.2075 4.37605 11.1499 4.49593 10.0567 4.52636V0.0618896C10.4111 0.161428 10.7606 0.355384 11.101 0.643349C11.6428 1.1017 12.1349 1.76882 12.5635 2.62607Z" fill="#015CC8"/>
<path d="M3.9136 10.0567C3.95031 11.4454 4.12408 12.7856 4.42188 14.0158C3.44664 14.2895 2.55432 14.6434 1.7805 15.0688C0.720679 13.6063 0.103924 11.88 -0.000588417 10.0567H3.9136Z" fill="#015CC8"/>
<path d="M4.72253 3.91401C3.90755 3.68513 3.15859 3.39654 2.50072 3.05372C2.58905 2.958 2.67897 2.8634 2.77165 2.77076C3.84186 1.70055 5.12217 0.916751 6.51953 0.457581C6.12809 0.920239 5.76609 1.47899 5.44149 2.12814C5.16681 2.6775 4.92654 3.27636 4.72253 3.91401Z" fill="#015CC8"/>
<path d="M6.43655 16.3738C6.19794 15.8967 5.98766 15.3772 5.80673 14.8242C6.79262 14.6238 7.85017 14.5039 8.94336 14.4735V18.938C8.58903 18.8385 8.23953 18.6445 7.89913 18.3565C7.35727 17.8982 6.86517 17.2311 6.43655 16.3738Z" fill="#015CC8"/>
<path d="M4.42188 4.9842C4.12408 6.21433 3.95031 7.55454 3.9136 8.94326H-0.000588417C0.103887 7.11998 0.720679 5.39368 1.7805 3.93121C2.55432 4.35654 3.44664 4.71045 4.42188 4.9842Z" fill="#015CC8"/>
<path d="M8.94336 10.0567V13.3601C7.7473 13.3919 6.58665 13.5258 5.50324 13.752C5.22656 12.6087 5.06422 11.3578 5.02815 10.0567H8.94336Z" fill="#015CC8"/>
<path d="M10.0555 8.94326V5.63988C11.2515 5.60804 12.4122 5.47413 13.4956 5.24792C13.7723 6.39125 13.9346 7.64213 13.9707 8.94326H10.0555Z" fill="#015CC8"/>
<path d="M14.2782 3.91401C14.0742 3.27632 13.8339 2.6775 13.5592 2.12814C13.2346 1.47899 12.8726 0.920202 12.4812 0.457581C13.8785 0.916751 15.1588 1.70055 16.2291 2.7708C16.3217 2.86344 16.4117 2.95804 16.5 3.05375C15.8421 3.39654 15.0931 3.68513 14.2782 3.91401Z" fill="#015CC8"/>
<path d="M4.72256 15.086C4.92654 15.7237 5.16681 16.3225 5.44149 16.8719C5.76609 17.521 6.12809 18.0798 6.51953 18.5425C5.1222 18.0833 3.84189 17.2995 2.77165 16.2293C2.67901 16.1366 2.58905 16.042 2.50072 15.9463C3.15863 15.6035 3.90758 15.3149 4.72256 15.086Z" fill="#015CC8"/>
<path d="M10.0555 10.0567H13.9707C13.9346 11.3579 13.7723 12.6087 13.4956 13.752C12.4122 13.5258 11.2515 13.3919 10.0555 13.3601V10.0567Z" fill="#015CC8"/>
<path d="M11.101 18.3566C10.7606 18.6445 10.411 18.8385 10.0567 18.938V14.4736C11.1499 14.504 12.2075 14.6239 13.1934 14.8243C13.0124 15.3773 12.8021 15.8967 12.5635 16.3739C12.1349 17.2311 11.6428 17.8982 11.101 18.3566Z" fill="#015CC8"/>
</g>
<defs>
<clipPath id="clip0">
<rect width="19" height="19" fill="white" transform="matrix(-1 0 0 1 19 0)"/>
</clipPath>
</defs>
</svg>
