<svg width="38" height="38" viewBox="0 0 38 38" fill="none" xmlns="http://www.w3.org/2000/svg">
<path d="M19 0H10.7667C10.4169 0 10.1333 0.283577 10.1333 0.633333V5.06667H0.633333C0.283577 5.06667 0 5.35024 0 5.7V37.3667C0 37.7164 0.283577 38 0.633333 38H19C19.3498 38 19.6333 37.7164 19.6333 37.3667V0.633333C19.6333 0.283577 19.3498 0 19 0ZM18.3667 32.9333H11.4V31.6667H18.3667V32.9333ZM1.26667 9.5H10.1333V28.5H1.26667V9.5ZM18.3667 6.96667H11.4V5.06667H18.3667V6.96667ZM1.26667 29.7667H10.1333V31.6667H1.26667V29.7667ZM11.4 30.4V8.23333H18.3667V30.4H11.4ZM18.3667 1.26667V3.8H11.4V1.26667H18.3667ZM10.1333 6.33333V8.23333H1.26667V6.33333H10.1333ZM1.26667 32.9333H10.1333V36.7333H1.26667V32.9333ZM11.4 36.7333V34.2H18.3667V36.7333H11.4Z" fill="#015CC8"/>
<path d="M37.9793 34.6738L30.3793 5.54042C30.3369 5.37714 30.2311 5.23767 30.0852 5.15263C29.9395 5.0679 29.766 5.0447 29.6031 5.08831L20.1031 7.62164C19.7666 7.71132 19.5656 8.05582 19.6534 8.3929L27.2534 37.5262C27.2958 37.6895 27.4019 37.829 27.5478 37.9137C27.6935 37.9981 27.867 38.021 28.0296 37.9771L37.5296 35.4438C37.8655 35.3541 38.0662 35.0102 37.9793 34.6738ZM22.0473 12.5513L30.3236 10.3448L30.6214 11.4847L22.3457 13.6946L22.0473 12.5513ZM30.9412 12.7137L34.6144 26.8038L26.3411 29.0112L22.6679 14.9201L30.9412 12.7137ZM34.9369 28.0299L35.5854 30.5153L27.3091 32.7218L26.6631 30.2373L34.9369 28.0299ZM29.3142 6.47589L30.0038 9.11993L21.7275 11.3258L21.0385 8.68297L29.3142 6.47589ZM28.3185 36.5908L27.6288 33.9467L35.9052 31.7396L36.5942 34.3824L28.3185 36.5908Z" fill="#015CC8"/>
<path d="M8.2332 11.4H3.16654C2.81678 11.4 2.5332 11.6836 2.5332 12.0333V17.1C2.5332 17.4497 2.81678 17.7333 3.16654 17.7333H8.2332C8.58296 17.7333 8.86654 17.4497 8.86654 17.1V12.0333C8.86654 11.6836 8.58296 11.4 8.2332 11.4ZM7.59987 16.4667H3.79987V12.6667H7.59987V16.4667Z" fill="#015CC8"/>
</svg>
