<svg width="48" height="48" viewBox="0 0 48 48" fill="none" xmlns="http://www.w3.org/2000/svg">
<path d="M34.365 12.8753C34.1825 12.4796 33.7136 12.3069 33.3181 12.4895C32.9225 12.6721 32.7498 13.1408 32.9323 13.5365C33.5294 14.8301 33.8322 16.2147 33.8322 17.6518C33.8322 23.0731 29.4218 27.4836 24.0006 27.4836C18.5793 27.4836 14.1688 23.0731 14.1688 17.6518C14.1688 12.2306 18.5793 7.82006 24.0006 7.82006C26.773 7.82006 29.4309 8.99991 31.2925 11.0571C31.585 11.3801 32.0837 11.405 32.407 11.1128C32.7301 10.8203 32.755 10.3214 32.4625 9.99825C30.3023 7.61119 27.218 6.24216 24.0006 6.24216C17.7092 6.24216 12.5908 11.3605 12.5908 17.6519C12.5908 23.9433 17.7092 29.0617 24.0006 29.0617C30.2919 29.0617 35.4102 23.9433 35.4102 17.6519C35.4101 15.9848 35.0585 14.3777 34.365 12.8753Z" fill="#015CC8"/>
<path d="M39.7574 17.6518C39.7574 17.0479 40.0217 16.3484 40.3017 15.6079C40.7243 14.4899 41.1613 13.3338 40.7918 12.196C40.4069 11.0107 39.3009 10.2902 38.3252 9.65428C37.6843 9.23672 37.0788 8.84241 36.749 8.38912C36.4122 7.92628 36.2207 7.22137 36.0178 6.47513C35.7145 5.35903 35.3707 4.09406 34.3767 3.37069C33.3927 2.65462 32.146 2.71341 30.9406 2.77022C30.1619 2.80697 29.4264 2.84166 28.8705 2.66109C28.3531 2.49309 27.7998 2.04591 27.2142 1.57247C26.3021 0.835594 25.2683 0 23.9997 0C22.731 0 21.6972 0.835594 20.7851 1.57284C20.1994 2.04619 19.6462 2.49338 19.129 2.66138C18.5731 2.84194 17.8375 2.80716 17.0588 2.7705C15.8534 2.71359 14.6066 2.65481 13.6226 3.37097C12.6286 4.09434 12.2849 5.35931 11.9815 6.47541C11.7787 7.22166 11.5871 7.92656 11.2502 8.38941C10.9204 8.84259 10.315 9.237 9.67412 9.65456C8.69828 10.2903 7.59231 11.0108 7.20756 12.1961C6.83809 13.3339 7.27506 14.49 7.69768 15.6081C7.97753 16.3486 8.2419 17.0481 8.2419 17.652C8.2419 18.2559 7.97753 18.9554 7.69759 19.6959C7.27497 20.814 6.838 21.9701 7.20747 23.1079C7.5924 24.2932 8.69837 25.0137 9.67412 25.6494C10.315 26.067 10.9204 26.4614 11.2502 26.9146C11.5871 27.3774 11.7786 28.0824 11.9815 28.8286C12.2848 29.9447 12.6286 31.2097 13.6226 31.933C14.6065 32.6491 15.8532 32.5903 17.0587 32.5335C17.8373 32.4967 18.5729 32.4621 19.1288 32.6426C19.6462 32.8106 20.1994 33.2578 20.7852 33.7312C21.2259 34.0874 21.6955 34.4659 22.2058 34.7627L19.1808 45.6132L16.3892 42.5022C16.1842 42.2738 15.8656 42.1851 15.5719 42.2743L11.5749 43.4923L14.0809 34.5054C14.1979 34.0857 13.9526 33.6506 13.5329 33.5335C13.113 33.4166 12.678 33.6619 12.561 34.0816L9.66831 44.4546C9.59097 44.7321 9.67093 45.0297 9.87709 45.231C10.0832 45.4324 10.3829 45.5052 10.6583 45.4212L15.5506 43.9304L18.9671 47.7379C19.1186 47.9067 19.3331 48 19.5543 47.9999C19.6141 47.9999 19.6743 47.9932 19.7341 47.9792C20.0147 47.9136 20.237 47.7003 20.3145 47.4228L23.6977 35.2859C23.797 35.2963 23.8972 35.3034 23.9995 35.3034C24.1015 35.3034 24.2016 35.2962 24.3007 35.2859L27.6854 47.4228C27.7627 47.7003 27.9853 47.9136 28.2658 47.9792C28.3254 47.9931 28.3856 47.9999 28.4453 47.9999C28.6667 47.9999 28.8812 47.9066 29.0327 47.7378L32.4481 43.9303L37.3413 45.421C37.6168 45.5049 37.9162 45.4321 38.1225 45.2308C38.3285 45.0294 38.4086 44.7319 38.3312 44.4545L34.7487 31.606C35.4628 30.8649 35.7557 29.7915 36.0175 28.8281C36.2203 28.0819 36.4119 27.377 36.7487 26.9141C37.0786 26.4609 37.684 26.0665 38.3249 25.649C39.3007 25.0132 40.4067 24.2927 40.7914 23.1075C41.1609 21.9697 40.7239 20.8136 40.3013 19.6956C40.0217 18.9552 39.7574 18.2558 39.7574 17.6518ZM36.425 43.4923L32.4268 42.2743C32.1332 42.1847 31.8144 42.2738 31.6095 42.5022L28.8189 45.6131L25.7929 34.7626C26.3035 34.4657 26.7732 34.0872 27.2141 33.7308C27.7997 33.2574 28.353 32.8103 28.8704 32.6422C29.4265 32.4616 30.162 32.4964 30.9406 32.533C31.7513 32.5713 32.5802 32.6093 33.3358 32.413L36.425 43.4923ZM39.2909 22.6205C39.0782 23.2753 38.294 23.7862 37.4637 24.3272C36.7313 24.8044 35.9739 25.2978 35.4731 25.986C34.9654 26.6836 34.7262 27.5636 34.495 28.4147C34.2371 29.3638 33.9934 30.2602 33.4482 30.6571C32.9127 31.0466 31.9909 31.0032 31.0148 30.9572C30.1291 30.9156 29.213 30.8722 28.383 31.1417C27.588 31.3999 26.8937 31.9611 26.2221 32.5039C25.4446 33.1324 24.7103 33.7258 23.9996 33.7258C23.2889 33.7258 22.5544 33.1322 21.777 32.5037C21.1055 31.961 20.411 31.3996 19.6161 31.1416C19.0926 30.9716 18.5349 30.9261 17.9722 30.9261C17.6428 30.9261 17.3115 30.9416 16.9844 30.9571C16.0084 31.0032 15.0866 31.0466 14.5511 30.657C14.0058 30.2602 13.7622 29.3637 13.5043 28.4146C13.2731 27.5635 13.0338 26.6834 12.5262 25.9859C12.0255 25.2978 11.2682 24.8044 10.5356 24.3271C9.70525 23.7862 8.92103 23.2751 8.7084 22.6203C8.51012 22.0096 8.83253 21.1567 9.17378 20.2537C9.4915 19.4132 9.82 18.5441 9.82 17.652C9.82 16.7599 9.4915 15.8906 9.17387 15.0502C8.83253 14.1473 8.51021 13.2944 8.7085 12.6836C8.92112 12.0288 9.70534 11.5178 10.5357 10.9769C11.2681 10.4997 12.0255 10.0063 12.5263 9.31828C13.0339 8.62069 13.2732 7.74066 13.5044 6.88959C13.7623 5.94047 14.0059 5.04413 14.5512 4.64719C15.0866 4.25756 16.0086 4.30097 16.9846 4.34709C17.8702 4.38881 18.7863 4.43213 19.6164 4.16259C20.4114 3.90441 21.1057 3.34322 21.7772 2.8005C22.5546 2.17181 23.2891 1.57819 23.9997 1.57819C24.7103 1.57819 25.4448 2.17181 26.2222 2.80013C26.8937 3.34294 27.5882 3.90422 28.3831 4.16231C29.2131 4.43184 30.129 4.38872 31.0148 4.34681C31.9907 4.30088 32.9127 4.25738 33.4481 4.64691C33.9933 5.04375 34.237 5.94019 34.4949 6.88931C34.7261 7.74038 34.9653 8.6205 35.473 9.318C35.9737 10.0061 36.731 10.4995 37.4635 10.9766C38.2938 11.5176 39.0781 12.0285 39.2908 12.6834C39.4891 13.2942 39.1667 14.1471 38.8254 15.0501C38.5077 15.8905 38.1792 16.7597 38.1792 17.6518C38.1792 18.544 38.5079 19.413 38.8256 20.2536C39.1668 21.1566 39.4892 22.0095 39.2909 22.6205Z" fill="#015CC8"/>
<path d="M27.0478 12.7448H20.9531C20.5173 12.7448 20.1641 13.0981 20.1641 13.5338C20.1641 13.9696 20.5173 14.3228 20.9531 14.3228H27.0478C27.4835 14.3228 27.8368 13.9696 27.8368 13.5338C27.8368 13.0981 27.4835 12.7448 27.0478 12.7448Z" fill="#015CC8"/>
<path d="M27.0478 20.9808H20.9531C20.5173 20.9808 20.1641 21.3341 20.1641 21.7698C20.1641 22.2056 20.5173 22.5588 20.9531 22.5588H27.0478C27.4835 22.5588 27.8368 22.2056 27.8368 21.7698C27.8368 21.3341 27.4835 20.9808 27.0478 20.9808Z" fill="#015CC8"/>
<path d="M29.2321 16.8628H26.8554C26.4197 16.8628 26.0664 17.2161 26.0664 17.6518C26.0664 18.0876 26.4197 18.4408 26.8554 18.4408H29.2321C29.6678 18.4408 30.0211 18.0877 30.0211 17.6518C30.0211 17.2161 29.6678 16.8628 29.2321 16.8628Z" fill="#015CC8"/>
<path d="M24.3845 16.8628H18.7675C18.3318 16.8628 17.9785 17.2161 17.9785 17.6518C17.9785 18.0876 18.3318 18.4408 18.7675 18.4408H24.3845C24.8202 18.4408 25.1735 18.0876 25.1735 17.6518C25.1735 17.2161 24.8202 16.8628 24.3845 16.8628Z" fill="#015CC8"/>
</svg>
