<svg width="48" height="48" viewBox="0 0 48 48" fill="none" xmlns="http://www.w3.org/2000/svg">
<g clip-path="url(#clip0)">
<path d="M33.7489 12.2153H18.771C18.3824 12.2153 18.0674 12.5303 18.0674 12.9189C18.0674 13.3075 18.3824 13.6225 18.771 13.6225H33.7488C34.1374 13.6225 34.4525 13.3075 34.4525 12.9189C34.4525 12.5302 34.1375 12.2153 33.7489 12.2153Z" fill="#015CC8"/>
<path d="M15.496 12.2153H13.1235C12.7349 12.2153 12.4199 12.5303 12.4199 12.9189C12.4199 13.3075 12.7348 13.6225 13.1235 13.6225H15.496C15.8846 13.6225 16.1996 13.3075 16.1996 12.9189C16.1996 12.5303 15.8846 12.2153 15.496 12.2153Z" fill="#015CC8"/>
<path d="M20.4828 33.782H13.1235C12.7349 33.782 12.4199 34.097 12.4199 34.4856C12.4199 34.8743 12.7349 35.1892 13.1235 35.1892H20.4828C20.8714 35.1892 21.1864 34.8742 21.1864 34.4856C21.1864 34.097 20.8714 33.782 20.4828 33.782Z" fill="#015CC8"/>
<path d="M23.4357 26.5931H13.1235C12.7349 26.5931 12.4199 26.9081 12.4199 27.2967C12.4199 27.6854 12.7349 28.0003 13.1235 28.0003H23.4357C23.8242 28.0003 24.1393 27.6853 24.1393 27.2967C24.1393 26.908 23.8243 26.5931 23.4357 26.5931Z" fill="#015CC8"/>
<path d="M28.4553 19.4041H13.1235C12.7349 19.4041 12.4199 19.7191 12.4199 20.1077C12.4199 20.4963 12.7349 20.8113 13.1235 20.8113H28.4553C28.8439 20.8114 29.1589 20.4964 29.1589 20.1077C29.1589 19.719 28.8439 19.4041 28.4553 19.4041Z" fill="#015CC8"/>
<path d="M41.7717 5.01657H12.6933C10.1176 5.01657 8.02215 7.11208 8.02215 9.68777V37.3726H0.70354C0.515758 37.3726 0.335664 37.4477 0.20357 37.5811C0.0713825 37.7146 -0.0019301 37.8953 3.86518e-05 38.0831C0.0277887 40.8769 2.03545 42.9835 4.67002 42.9835H33.7485H33.8371C36.4128 42.9835 38.5082 40.888 38.5082 38.3123V29.7864C38.5082 29.3978 38.1931 29.0829 37.8045 29.0829C37.4159 29.0829 37.1009 29.3979 37.1009 29.7865V38.3124C37.1009 40.1122 35.6367 41.5763 33.8371 41.5763H33.7485C31.9083 41.5763 30.5056 40.0686 30.4857 38.0692C30.4819 37.6834 30.168 37.3726 29.7821 37.3726H9.42971V9.68767C9.42971 7.88786 10.8939 6.42376 12.6935 6.42376H38.4334C38.4128 6.44486 38.3933 6.46698 38.373 6.48854C38.3485 6.5147 38.3236 6.54057 38.2996 6.5672C38.2742 6.59542 38.2497 6.62439 38.2251 6.65326C38.2014 6.68092 38.1775 6.70829 38.1544 6.73651C38.1305 6.76576 38.1076 6.79576 38.0844 6.82558C38.0619 6.85445 38.0392 6.88304 38.0173 6.91248C37.995 6.94267 37.9736 6.97351 37.952 7.00426C37.9307 7.03445 37.9091 7.06445 37.8885 7.09511C37.8678 7.12614 37.848 7.15783 37.8281 7.18942C37.8081 7.22083 37.7878 7.25195 37.7686 7.28383C37.7493 7.31589 37.7311 7.34861 37.7126 7.38114C37.6942 7.41348 37.6752 7.44564 37.6575 7.47855C37.6397 7.51145 37.6232 7.54511 37.6062 7.57858C37.5893 7.61195 37.5718 7.64505 37.5557 7.6788C37.5395 7.71273 37.5246 7.74733 37.5091 7.78164C37.4937 7.81586 37.4779 7.8498 37.4634 7.88439C37.4486 7.91936 37.4353 7.95498 37.4215 7.99033C37.4078 8.0252 37.3936 8.0598 37.3808 8.09505C37.3675 8.13123 37.3558 8.16808 37.3436 8.20473C37.3317 8.23998 37.3193 8.27486 37.3082 8.31048C37.2966 8.34798 37.2866 8.38614 37.2759 8.42411C37.2659 8.45955 37.2552 8.4947 37.2461 8.53052C37.236 8.56989 37.2276 8.60983 37.2185 8.64958C37.2105 8.68455 37.2017 8.71933 37.1946 8.75458C37.1861 8.79592 37.1795 8.83774 37.1722 8.87945C37.1662 8.91395 37.1592 8.94808 37.154 8.98277C37.1472 9.0273 37.1424 9.07239 37.1368 9.1173C37.1329 9.14974 37.1279 9.1818 37.1246 9.21442C37.1196 9.26467 37.1165 9.31549 37.113 9.36621C37.1111 9.39405 37.1081 9.42171 37.1067 9.44964C37.1028 9.52849 37.1007 9.60789 37.1007 9.68777V9.92393V15.9327C37.1007 16.3213 37.4157 16.6363 37.8043 16.6363C38.1929 16.6363 38.5079 16.3213 38.5079 15.9327V10.6275H45.7457C45.9335 10.6275 46.1136 10.5524 46.2457 10.419C46.3779 10.2855 46.4512 10.1048 46.4492 9.91699C46.4215 7.12323 44.4138 5.01657 41.7717 5.01657ZM29.1276 38.7799C29.1372 38.8527 29.1485 38.9248 29.1609 38.9964C29.1651 39.0204 29.1701 39.044 29.1746 39.0679C29.1835 39.1152 29.1924 39.1625 29.2026 39.2092C29.2086 39.2373 29.2154 39.2648 29.2218 39.2926C29.2315 39.3347 29.2414 39.3768 29.2522 39.4183C29.2597 39.4475 29.2678 39.4763 29.2758 39.5052C29.2868 39.5448 29.2978 39.5842 29.3096 39.6233C29.3184 39.6527 29.3277 39.6818 29.3371 39.7109C29.3493 39.749 29.3619 39.7868 29.375 39.8244C29.385 39.8534 29.3952 39.8823 29.4058 39.911C29.4195 39.9483 29.4337 39.9852 29.4482 40.022C29.4593 40.0499 29.4702 40.0778 29.4817 40.1055C29.4971 40.1427 29.5133 40.1795 29.5295 40.2162C29.5411 40.2425 29.5526 40.269 29.5647 40.2951C29.5825 40.3335 29.6013 40.3714 29.6199 40.4091C29.6316 40.4326 29.6427 40.4562 29.6547 40.4795C29.6776 40.5238 29.7015 40.5674 29.7256 40.6109C29.7343 40.6267 29.7427 40.6429 29.7516 40.6585C29.785 40.7174 29.8196 40.7753 29.8553 40.8323C29.8637 40.8456 29.8726 40.8584 29.881 40.8716C29.9089 40.9152 29.9371 40.9585 29.9663 41.001C29.9798 41.0206 29.9938 41.0396 30.0075 41.059C30.0326 41.0945 30.0578 41.1298 30.0838 41.1644C30.0995 41.1852 30.1155 41.2055 30.1314 41.226C30.1566 41.2583 30.1819 41.2906 30.2078 41.3221C30.2248 41.3428 30.2422 41.3632 30.2595 41.3837C30.2854 41.4142 30.3116 41.4444 30.3383 41.4742C30.3562 41.4943 30.3744 41.5141 30.3926 41.5338C30.4057 41.5478 30.4182 41.5625 30.4314 41.5763H4.66992C3.05517 41.5763 1.77726 40.4152 1.47492 38.7799H29.1276ZM38.5426 9.22014C38.5429 9.21536 38.5434 9.21039 38.544 9.20552C38.5472 9.18405 38.5511 9.16277 38.5548 9.14149C38.5599 9.11149 38.565 9.08149 38.5709 9.05167C38.5754 9.02899 38.5805 9.00649 38.5855 8.98399C38.5916 8.95605 38.5979 8.9282 38.6048 8.90055C38.6106 8.8773 38.6168 8.85414 38.6231 8.83108C38.6303 8.80474 38.6377 8.77839 38.6455 8.75233C38.6525 8.7287 38.6599 8.70527 38.6675 8.68192C38.6756 8.65699 38.684 8.63224 38.6927 8.60749C38.7011 8.58358 38.7097 8.55967 38.7187 8.53605C38.7275 8.5127 38.7368 8.48964 38.7461 8.46648C38.756 8.44211 38.7658 8.41783 38.7763 8.39373C38.7856 8.37227 38.7955 8.35108 38.8052 8.32989C38.8167 8.30486 38.8282 8.27964 38.8403 8.25498C38.8493 8.23661 38.8589 8.21861 38.8683 8.20042C38.8822 8.17342 38.8959 8.14642 38.9105 8.11989C38.9161 8.10958 38.9223 8.09964 38.928 8.08942C38.993 7.97439 39.0643 7.86339 39.1423 7.75755C39.1431 7.75651 39.1437 7.75558 39.1445 7.75455C39.1696 7.72061 39.1956 7.68733 39.2219 7.65433C39.2262 7.64908 39.2302 7.64373 39.2344 7.63848C39.2602 7.60661 39.2868 7.57539 39.3137 7.54455C39.3187 7.53883 39.3237 7.53301 39.3287 7.5273C39.3561 7.49636 39.3841 7.46608 39.4127 7.43617C39.4174 7.4313 39.422 7.42633 39.4268 7.42145C39.4564 7.39089 39.4866 7.36079 39.5173 7.33136C39.5208 7.32808 39.5243 7.3248 39.5277 7.32142C39.5602 7.29067 39.5932 7.26048 39.6269 7.23104C39.6281 7.23001 39.6293 7.22908 39.6304 7.22804C40.0613 6.85276 40.5915 6.58811 41.1767 6.47917C41.177 6.47907 41.1774 6.47907 41.1777 6.47898C41.2256 6.47007 41.2739 6.4622 41.3226 6.45545C41.3255 6.45507 41.3284 6.4547 41.3313 6.45432C41.3777 6.44795 41.4244 6.44251 41.4714 6.43811C41.4785 6.43745 41.4857 6.43707 41.4929 6.43651C41.536 6.43276 41.5791 6.42957 41.6226 6.42751C41.6477 6.42639 41.673 6.4262 41.6983 6.42554C41.7255 6.42489 41.7526 6.42367 41.78 6.42367C43.3948 6.42367 44.6727 7.58476 44.975 9.22014H38.5426Z" fill="#015CC8"/>
<path d="M47.9987 17.9842C47.9986 17.976 47.9984 17.9679 47.9981 17.9596C47.9953 17.8934 47.9834 17.8297 47.9634 17.7693C47.9625 17.7663 47.9621 17.7632 47.9611 17.7603C47.9603 17.7579 47.9589 17.7556 47.958 17.7532C47.9469 17.7223 47.9342 17.6923 47.9192 17.6637C47.9173 17.6601 47.9152 17.6568 47.9133 17.6533C47.8994 17.6279 47.884 17.6037 47.8673 17.5803C47.8637 17.5753 47.8603 17.5702 47.8567 17.5653C47.8382 17.5409 47.8181 17.5179 47.7967 17.4961C47.792 17.4913 47.787 17.4869 47.7822 17.4823C47.762 17.4628 47.7406 17.4446 47.7181 17.4276C47.7151 17.4253 47.7123 17.4228 47.7092 17.4206C47.6839 17.4022 47.6571 17.3858 47.6294 17.3708C47.6241 17.3679 47.6187 17.3653 47.6133 17.3625C47.5851 17.3483 47.5562 17.3353 47.5259 17.3248C47.5257 17.3248 47.5255 17.3247 47.5254 17.3247C47.4953 17.3143 47.464 17.3066 47.4323 17.3003C47.4252 17.2989 47.4182 17.2977 47.4111 17.2965C47.3793 17.2913 47.347 17.2873 47.3139 17.2865C41.4266 17.1342 33.7498 18.5514 29.8686 22.982C28.1701 24.921 27.3863 27.381 26.6284 29.76C26.5664 29.9547 26.5044 30.1493 26.4419 30.3436C26.4392 30.3518 26.4367 30.3601 26.4344 30.3684L25.2452 34.5917C25.14 34.9657 25.3578 35.3544 25.7318 35.4598C25.7956 35.4778 25.8598 35.4862 25.9229 35.4862C26.2301 35.4862 26.5125 35.2833 26.5998 34.973L27.7027 31.056C29.0509 30.4241 30.1366 30.1286 31.603 29.7299C32.3637 29.5229 33.2259 29.2885 34.2693 28.9676C36.5249 28.2738 40.852 25.3713 42.8435 23.2163C44.5852 21.3314 46.0508 19.9305 47.7439 18.5324C47.7459 18.5308 47.7474 18.5289 47.7493 18.5272C47.774 18.5063 47.7974 18.4841 47.819 18.46C47.8203 18.4585 47.8217 18.4572 47.823 18.4558C47.8443 18.4317 47.8636 18.4058 47.8815 18.3788C47.8848 18.3738 47.888 18.3688 47.8912 18.3638C47.9249 18.3101 47.9515 18.2517 47.9699 18.1894C47.9717 18.1835 47.9734 18.1777 47.975 18.1717C47.9831 18.1411 47.9899 18.11 47.9939 18.0779C47.9941 18.0766 47.9941 18.0754 47.9942 18.0741C47.9968 18.0523 47.9987 18.0303 47.9993 18.008C47.9995 17.9999 47.9988 17.9921 47.9987 17.9842ZM30.9273 23.9092C32.565 22.0395 35.0751 20.6302 38.3881 19.7204C39.2784 19.4759 40.2193 19.2731 41.189 19.1129C38.7251 20.3078 36.3693 21.8043 35.0527 22.6838C32.9281 24.1032 30.6346 25.8249 28.9409 27.3562C29.4421 26.0866 30.048 24.913 30.9273 23.9092ZM41.81 22.2612C39.8718 24.3586 35.6857 27.0596 33.8556 27.6224C32.8343 27.9364 31.984 28.1678 31.2337 28.3718C30.5549 28.5564 29.9374 28.7246 29.3267 28.9185C29.5998 28.6568 29.9201 28.3635 30.2976 28.0341C31.8169 26.7089 33.7833 25.2243 35.8344 23.8541C39.3859 21.4815 42.5998 19.8162 44.9577 19.0942C43.9337 20.0373 42.9264 21.0528 41.81 22.2612Z" fill="#015CC8"/>
</g>
<defs>
<clipPath id="clip0">
<rect width="48" height="48" fill="white"/>
</clipPath>
</defs>
</svg>
