<svg width="49" height="49" viewBox="0 0 49 49" fill="none" xmlns="http://www.w3.org/2000/svg">
<path d="M39.4984 32.3646V27.2636L37.3457 28.1012L37.3394 28.0869L37.2881 27.9938C36.4632 26.7095 35.1292 25.8159 33.627 25.5436L28.4471 24.601V24.1921C30.3842 23.0673 31.8027 21.1483 32.2448 18.8796C33.6799 18.5828 34.7621 17.3095 34.7621 15.7876V7.9909C34.7621 5.78774 33.3191 3.86638 31.2257 3.2412L30.831 2.84651C28.9949 1.01041 26.5541 0 23.9579 0C18.5988 0 14.2382 4.35975 14.2382 9.71964V15.7876C14.2382 17.3095 15.3205 18.5828 16.7555 18.8796C17.1984 21.1483 18.6161 23.0681 20.5533 24.1921V24.601L15.3741 25.5428C13.8735 25.8151 12.5403 26.7071 11.7146 27.9906L11.6672 28.1059L9.50193 27.2636V32.3646C8.1963 32.3646 7.13379 33.4271 7.13379 34.7327V37.8903C7.13379 39.1959 8.1963 40.2584 9.50193 40.2584V43.1665L24.5002 49L39.4984 43.1665V40.2584C40.804 40.2584 41.8665 39.1959 41.8665 37.8903V34.7327C41.8665 33.4271 40.804 32.3646 39.4984 32.3646ZM29.9264 26.475L33.3444 27.0963C34.3508 27.2794 35.242 27.8604 35.8365 28.6877L28.1992 31.6573L29.9264 26.475ZM22.1991 24.916C22.9277 25.1386 23.6997 25.2602 24.5002 25.2602C25.3006 25.2602 26.0726 25.1386 26.8012 24.916L24.5002 26.6416L22.1991 24.916ZM23.2987 27.7136L21.6876 29.3239L20.6425 26.1893L21.1453 26.0985L23.2987 27.7136ZM27.855 26.0993L28.3579 26.1901L27.3127 29.3247L25.7016 27.7144L27.855 26.0993ZM32.394 17.1469V14.4283C32.8636 14.7022 33.1833 15.2058 33.1833 15.7876C33.1833 16.3694 32.8636 16.873 32.394 17.1469ZM16.6064 17.1469C16.1367 16.873 15.817 16.3694 15.817 15.7876C15.817 15.2058 16.1367 14.7022 16.6064 14.4283V17.1469ZM16.6064 11.8407V12.7422C16.3253 12.8156 16.0617 12.9261 15.817 13.069V9.71964C15.817 5.23122 19.4686 1.57876 23.9579 1.57876C26.1318 1.57876 28.1771 2.42577 29.7148 3.96348L30.411 4.6605L30.6234 4.7126C32.1311 5.08914 33.1833 6.4374 33.1833 7.9909V13.069C32.9386 12.9261 32.675 12.8148 32.394 12.7422V11.8407H29.8908C27.7516 11.8407 25.7071 10.8192 24.4244 9.10866L23.7968 8.27034L22.2283 9.83963C20.9369 11.1303 19.2208 11.8407 17.3957 11.8407H16.6064ZM18.1851 17.3664V13.3832C20.1341 13.2024 21.9426 12.357 23.3445 10.9558L23.6516 10.6487C25.2343 12.3956 27.514 13.4195 29.8908 13.4195H30.8152V17.3664C30.8152 20.8483 27.9821 23.6814 24.5002 23.6814C21.0182 23.6814 18.1851 20.8483 18.1851 17.3664ZM15.6559 27.0963L19.074 26.475L20.8011 31.6573L13.1623 28.6869C13.7567 27.8588 14.6495 27.2794 15.6559 27.0963ZM8.71255 37.8903V34.7327C8.71255 34.297 9.06698 33.9434 9.50193 33.9434C10.8076 33.9434 11.8701 35.0059 11.8701 36.3115C11.8701 37.6171 10.8076 38.6796 9.50193 38.6796C9.06698 38.6796 8.71255 38.326 8.71255 37.8903ZM23.7108 46.9981L11.0807 42.0874V39.9237C12.4724 39.3127 13.4488 37.9258 13.4488 36.3115C13.4488 34.6972 12.4724 33.3103 11.0807 32.6993V29.5718L23.7108 34.4833V46.9981ZM21.3671 31.8783L24.5002 28.7445L27.6332 31.8775L24.5002 33.0963L21.3671 31.8783ZM37.9196 42.0866L25.2895 46.9973V34.4833L37.9196 29.5718V32.6993C36.5279 33.3103 35.5515 34.6972 35.5515 36.3115C35.5515 37.9258 36.5279 39.3127 37.9196 39.9237V42.0866ZM40.2878 37.8903C40.2878 38.326 39.9333 38.6796 39.4984 38.6796C38.1928 38.6796 37.1302 37.6171 37.1302 36.3115C37.1302 35.0059 38.1928 33.9434 39.4984 33.9434C39.9333 33.9434 40.2878 34.297 40.2878 34.7327V37.8903Z" fill="#015CC8"/>
</svg>
