<svg width="42" height="42" viewBox="0 0 42 42" fill="none" xmlns="http://www.w3.org/2000/svg">
<g clip-path="url(#clip0)">
<path d="M21.6771 32.1613V11.9334C21.6771 11.5592 21.3739 11.256 20.9997 11.256C20.6255 11.256 20.3223 11.5592 20.3223 11.9334V32.1613C20.3223 32.5355 20.6255 32.8387 20.9997 32.8387C21.3739 32.8387 21.6771 32.5355 21.6771 32.1613Z" fill="#015CC8"/>
<path d="M41.3226 6.84486C39.8904 6.84486 38.1058 6.22687 36.2164 5.57267C33.8236 4.74405 31.1113 3.80496 28.2984 3.80496C25.0437 3.80496 23.058 5.23125 21.9655 6.42775C21.5568 6.87539 21.2402 7.32393 21.0001 7.7218C20.76 7.32393 20.4433 6.87539 20.0347 6.42775C18.9421 5.23125 16.9565 3.80496 13.7018 3.80496C10.8888 3.80496 8.17663 4.74405 5.78381 5.57267C3.89417 6.22687 2.10957 6.84486 0.677419 6.84486C0.303213 6.84486 0 7.14807 0 7.52228V34.808C0 35.1822 0.303213 35.4854 0.677419 35.4854C2.33755 35.4854 4.22683 34.8312 6.22693 34.1386C8.51886 33.3451 11.1166 32.4455 13.7016 32.4455C15.9181 32.4455 17.7122 33.1795 19.034 34.627C19.2862 34.9032 19.7148 34.9226 19.9911 34.6704C20.2674 34.4181 20.2867 33.9896 20.0345 33.7133C18.9418 32.5169 16.9563 31.0906 13.7016 31.0906C10.8887 31.0906 8.17645 32.0297 5.78363 32.8583C4.18175 33.4132 2.65512 33.9416 1.35484 34.0898V8.1661C2.84435 8.0242 4.494 7.45291 6.22693 6.8529C8.51886 6.05932 11.1166 5.1598 13.7016 5.1598C18.9295 5.1598 20.2974 9.31121 20.3524 9.48571C20.4398 9.77005 20.7025 9.96424 21 9.96424C21.2975 9.96424 21.5602 9.77014 21.6476 9.48571C21.6608 9.44245 23.037 5.1598 28.2984 5.1598C30.8834 5.1598 33.4811 6.05932 35.7731 6.8529C37.5061 7.453 39.1557 8.0242 40.6452 8.1661V34.0898C39.3449 33.9416 37.8182 33.4132 36.2164 32.8584C33.8236 32.0298 31.1113 31.0907 28.2984 31.0907C25.0436 31.0907 23.0579 32.517 21.9655 33.7135C21.7132 33.9899 21.7326 34.4183 22.0088 34.6705C22.2852 34.9228 22.7137 34.9034 22.9659 34.6272C24.2877 33.1796 26.0818 32.4456 28.2984 32.4456C30.8834 32.4456 33.4811 33.3451 35.7731 34.1387C37.7733 34.8313 39.6625 35.4855 41.3226 35.4855C41.6968 35.4855 42 35.1823 42 34.8081V7.52228C42 7.14816 41.6968 6.84486 41.3226 6.84486Z" fill="#015CC8"/>
<path d="M41.3226 36.8402C39.8904 36.8402 38.1058 36.2223 36.2164 35.5681C33.8235 34.7394 31.1112 33.8004 28.2984 33.8004C25.2416 33.8004 23.3044 35.0584 22.1749 36.2026L19.825 36.2025C18.6955 35.0583 16.7582 33.8004 13.7016 33.8004C10.8887 33.8004 8.17645 34.7394 5.78363 35.5681C3.89417 36.2223 2.10957 36.8402 0.677419 36.8402C0.303213 36.8402 0 37.1435 0 37.5177C0 37.8919 0.303213 38.1951 0.677419 38.1951C2.33755 38.1951 4.22683 37.5409 6.22693 36.8483C8.51886 36.0547 11.1166 35.1552 13.7016 35.1552C15.9181 35.1552 17.7122 35.8892 19.034 37.3367C19.1624 37.4772 19.3439 37.5572 19.5342 37.5572L22.4656 37.5573C22.6559 37.5573 22.8374 37.4772 22.9658 37.3368C24.2877 35.8892 26.0817 35.1552 28.2983 35.1552C30.8833 35.1552 33.481 36.0547 35.773 36.8483C37.7732 37.5409 39.6624 38.1951 41.3225 38.1951C41.6967 38.1951 41.9999 37.8919 41.9999 37.5177C41.9999 37.1435 41.6968 36.8402 41.3226 36.8402Z" fill="#015CC8"/>
</g>
<defs>
<clipPath id="clip0">
<rect width="42" height="42" fill="white"/>
</clipPath>
</defs>
</svg>
