<svg width="42" height="42" viewBox="0 0 42 42" fill="none" xmlns="http://www.w3.org/2000/svg">
<path d="M41.9966 32.5465L41.9868 19.7761C41.9833 18.1333 40.6517 16.8026 39.0087 16.8004C37.5629 16.7986 36.3252 17.8369 36.0758 19.2611L34.4245 28.6197C33.7564 28.5311 33.0796 28.6981 32.5294 29.0873L26.8959 33.0499C26.7094 33.1808 26.5985 33.3944 26.5986 33.6224V41.2975C26.5986 41.6841 26.912 41.9974 27.2985 41.9974H34.2977C34.6842 41.9974 34.9976 41.6841 34.9976 41.2975V40.412L39.6055 37.4781C41.161 36.3242 42.0541 34.4825 41.9966 32.5465ZM38.8392 36.3064L33.9217 39.4372C33.7199 39.5658 33.5978 39.7885 33.5977 40.0278V40.5975H27.9984V33.9856L33.3345 30.2321C33.9156 29.8238 34.7177 29.9639 35.1259 30.545C35.5252 31.1133 35.4012 31.8958 34.8457 32.3127L31.0779 35.1384L31.918 36.258L35.6858 33.4323C36.8723 32.5422 37.1126 30.8588 36.2224 29.6723C36.1462 29.5707 36.0629 29.4747 35.9731 29.3849C35.9013 29.3132 35.8257 29.2454 35.7465 29.1819L37.4543 19.5045C37.6056 18.6461 38.4243 18.0729 39.2826 18.2243C40.0365 18.3573 40.5863 19.0121 40.5868 19.7775L40.5967 32.5472C40.6562 34.0113 40.0008 35.4132 38.8392 36.3064Z" fill="#015CC8"/>
<path d="M15.1032 33.0499L9.46972 29.0873C8.91959 28.6981 8.24268 28.5312 7.5747 28.6197L5.92334 19.2611C5.6376 17.6413 4.09289 16.5598 2.47312 16.8456C1.05072 17.0965 0.0134438 18.3318 0.0123064 19.7761L0.00250762 32.5472C-0.0539229 34.4888 0.844942 36.3347 2.40811 37.4876L7.00165 40.412V41.2975C7.00165 41.684 7.31503 41.9974 7.70156 41.9974H14.7007C15.0872 41.9974 15.4006 41.684 15.4006 41.2975V33.6224C15.4007 33.3944 15.2898 33.1808 15.1032 33.0499ZM14.0008 40.5975H8.40148V40.0278C8.40139 39.7885 8.27925 39.5658 8.0775 39.4372L3.17434 36.316C2.00505 35.4237 1.34381 34.0175 1.40234 32.5478L1.41222 19.7774C1.41283 18.9058 2.11992 18.1997 2.99149 18.2003C3.75702 18.2008 4.41179 18.7506 4.54469 19.5044L6.25239 29.1818C6.17321 29.2454 6.09762 29.3131 6.02579 29.3848C4.97697 30.4336 4.97697 32.1341 6.02579 33.1829C6.11556 33.2727 6.21162 33.356 6.3132 33.4322L10.081 36.2579L10.9211 35.1383L7.15327 32.3126C6.58529 31.8863 6.4705 31.0803 6.89684 30.5123C7.31372 29.9569 8.09631 29.8328 8.66456 30.2321L14.0007 33.9855V40.5975H14.0008Z" fill="#015CC8"/>
<path d="M20.9992 0.00253321H20.9551L20.9992 1.40236C21.8558 1.40227 22.7104 1.48408 23.5514 1.64672L23.8187 0.272875C22.8896 0.0929096 21.9455 0.00235823 20.9992 0.00253321Z" fill="#015CC8"/>
<path d="M18.0885 0.290985C17.1448 0.480574 16.2221 0.763077 15.334 1.13447L15.874 2.42564C16.6769 2.09029 17.5109 1.835 18.364 1.66352L18.0885 0.290985Z" fill="#015CC8"/>
<path d="M30.4088 24.099C29.7931 24.7151 29.1189 25.2697 28.3955 25.7548L29.1754 26.9175C29.9743 26.3815 30.719 25.769 31.3992 25.0888L30.4088 24.099Z" fill="#015CC8"/>
<path d="M26.5796 1.09897L26.0479 2.39355C26.8529 2.72461 27.6236 3.13388 28.3489 3.61533L29.1234 2.44928C28.3217 1.91682 27.4697 1.46459 26.5796 1.09897Z" fill="#015CC8"/>
<path d="M34.2985 14.7008C34.2986 15.5715 34.214 16.44 34.0459 17.2944L35.419 17.5658C35.6048 16.6221 35.6983 15.6626 35.6982 14.7008V14.6414L34.2985 14.7008Z" fill="#015CC8"/>
<path d="M31.3544 4.26932L30.3682 5.26249C30.9863 5.87632 31.5431 6.54885 32.0308 7.27063L33.1907 6.48734C32.6522 5.69014 32.0372 4.94727 31.3544 4.26932Z" fill="#015CC8"/>
<path d="M26.0992 26.9865C25.2955 27.3202 24.4609 27.5737 23.6074 27.7435L23.8801 29.1166C24.8242 28.9288 25.7474 28.6482 26.6364 28.279L26.0992 26.9865Z" fill="#015CC8"/>
<path d="M34.5607 9.02109L33.2695 9.56247C33.6059 10.3652 33.8624 11.1991 34.0351 12.0522L35.4069 11.7746C35.2159 10.8312 34.9325 9.90893 34.5607 9.02109Z" fill="#015CC8"/>
<path d="M33.2908 19.7874C32.9572 20.5916 32.5454 21.3612 32.0615 22.0851L33.2256 22.8629C33.7602 22.0628 34.2152 21.2122 34.584 20.3234L33.2908 19.7874Z" fill="#015CC8"/>
<path d="M21.0003 27.9991C20.1342 27.9992 19.2703 27.9155 18.4204 27.7489L18.1504 29.1228C19.0892 29.3065 20.0437 29.399 21.0003 29.3989H21.015L21.0003 27.9991Z" fill="#015CC8"/>
<path d="M9.95296 22.1072L8.79102 22.8885C9.32802 23.6867 9.94158 24.4308 10.6229 25.1103L11.6112 24.1192C10.9943 23.504 10.439 22.8302 9.95296 22.1072Z" fill="#015CC8"/>
<path d="M12.7991 2.50079C12.0011 3.0385 11.2577 3.65277 10.5791 4.33501L11.5716 5.32198C12.1858 4.70456 12.8588 4.14866 13.5811 3.66204L12.7991 2.50079Z" fill="#015CC8"/>
<path d="M6.57481 11.8663C6.3931 12.8001 6.30167 13.7494 6.30176 14.7008V14.7301L7.70159 14.7008C7.70141 13.8392 7.78418 12.9797 7.94866 12.1342L6.57481 11.8663Z" fill="#015CC8"/>
<path d="M8.75669 6.56494C8.22344 7.36599 7.77016 8.21753 7.40332 9.10729L8.6979 9.64045C9.0294 8.83555 9.43946 8.06529 9.92205 7.3408L8.75669 6.56494Z" fill="#015CC8"/>
<path d="M7.95944 17.3217L6.58691 17.5961C6.77563 18.5401 7.05717 19.4631 7.42734 20.3517L8.7192 19.8131C8.38464 19.0096 8.13022 18.1751 7.95944 17.3217Z" fill="#015CC8"/>
<path d="M13.6287 25.7712L12.8516 26.9353C13.6522 27.4693 14.5032 27.9235 15.3925 28.2913L15.927 26.9975C15.1226 26.665 14.3528 26.2543 13.6287 25.7712Z" fill="#015CC8"/>
<path d="M31.4987 11.9011C31.4987 9.75242 30.1638 7.4483 27.9612 7.05906C27.7484 4.67104 25.7626 2.83167 23.3653 2.80219C22.5323 2.80149 21.7148 3.02695 21 3.45459C20.2852 3.02695 19.4677 2.80149 18.6348 2.80219C16.1607 2.83788 14.1159 4.74182 13.9042 7.2071C11.8589 7.85014 10.4764 9.75723 10.5013 11.9011C10.5005 12.8991 10.7992 13.8743 11.3588 14.7007C10.7992 15.5271 10.5005 16.5024 10.5013 17.5004C10.5013 19.649 11.8362 21.9531 14.0389 22.3424C14.2516 24.7304 16.2375 26.5698 18.6348 26.5993C19.4677 26.6 20.2852 26.3745 21 25.9469C21.7148 26.3745 22.5323 26.6 23.3653 26.5993C25.8393 26.5636 27.8841 24.6596 28.0958 22.1944C30.1412 21.5513 31.5237 19.6442 31.4987 17.5004C31.4995 16.5024 31.2008 15.5271 30.6413 14.7007C31.2008 13.8744 31.4995 12.8991 31.4987 11.9011ZM20.3001 9.10141C20.3001 9.87455 19.6734 10.5012 18.9003 10.5012C18.1271 10.5012 17.5005 9.87455 17.5005 9.10141H16.1006C16.1024 10.6469 17.3548 11.8993 18.9003 11.9011C19.3933 11.8983 19.8765 11.7638 20.3001 11.5116V24.723C19.7991 25.0315 19.223 25.1962 18.6348 25.1994C16.9932 25.1629 15.6327 23.9161 15.4536 22.2839C16.9398 21.8722 17.8109 20.3336 17.3991 18.8474C17.0633 17.6353 15.9585 16.7972 14.7008 16.8005V18.2003C15.4739 18.2003 16.1006 18.827 16.1006 19.6001C16.1006 20.3733 15.4739 21 14.7008 21C13.0262 21 11.9011 19.1903 11.9011 17.5004C11.8997 16.6409 12.2077 15.8097 12.7689 15.1586C12.9968 14.8959 12.9968 14.5054 12.7689 14.2427C12.2077 13.5917 11.8997 12.7605 11.9011 11.901C11.8701 10.2227 13.0536 8.76642 14.7028 8.45373C15.0459 8.36642 15.2844 8.05548 15.2801 7.7015C15.2431 5.80989 16.7433 4.24488 18.6348 4.20193C19.223 4.20508 19.7991 4.36991 20.3001 4.67839V9.10141ZM29.2312 15.1587C29.7924 15.8097 30.1004 16.641 30.0989 17.5005C30.13 19.1788 28.9464 20.635 27.2972 20.9477C26.9542 21.035 26.7156 21.346 26.72 21.7C26.757 23.5916 25.2567 25.1566 23.3653 25.1995C22.777 25.1964 22.2009 25.0315 21.6999 24.7231V16.8006C21.6999 16.0274 22.3266 15.4007 23.0998 15.4007C23.8729 15.4007 24.4996 16.0274 24.4996 16.8006H25.8994C25.8977 15.2551 24.6453 14.0026 23.0998 14.0009C22.6068 14.0037 22.1236 14.1382 21.6999 14.3904V4.67848C22.2009 4.36999 22.777 4.20525 23.3653 4.20201C25.0068 4.2385 26.3673 5.48539 26.5465 7.11751C25.0602 7.52923 24.1892 9.06782 24.601 10.5541C24.9368 11.7662 26.0415 12.6042 27.2993 12.601V11.2012C26.5261 11.2012 25.8994 10.5745 25.8994 9.80133C25.8994 9.02818 26.5261 8.4015 27.2993 8.4015C28.9739 8.4015 30.0989 10.2111 30.0989 11.9011C30.1004 12.7606 29.7924 13.5918 29.2312 14.2428C29.0032 14.5055 29.0032 14.8959 29.2312 15.1587Z" fill="#015CC8"/>
</svg>
