<svg width="19" height="19" viewBox="0 0 19 19" fill="none" xmlns="http://www.w3.org/2000/svg">
<path d="M9.49984 0C4.25328 0 0 4.25341 0 9.49984C0 14.7463 4.25328 19 9.49984 19C14.7464 19 19 14.7463 19 9.49984C19 4.25341 14.7464 0 9.49984 0ZM13.6069 11.3067H9.57933C9.56571 11.3067 9.55304 11.3034 9.53955 11.3029C9.52606 11.3035 9.51346 11.3067 9.49978 11.3067C9.13694 11.3067 8.84275 11.0125 8.84275 10.6497V3.9425C8.84275 3.57966 9.13694 3.28547 9.49978 3.28547C9.86262 3.28547 10.1568 3.57966 10.1568 3.9425V9.99265H13.6066C13.9695 9.99265 14.2637 10.2868 14.2637 10.6497C14.2637 11.0125 13.9697 11.3067 13.6069 11.3067Z" fill="#015CC8"/>
</svg>
