<svg width="19" height="19" viewBox="0 0 19 19" fill="none" xmlns="http://www.w3.org/2000/svg">
<path d="M7.24842 16.7324C7.24838 16.7374 7.24805 16.7423 7.24805 16.7473C7.24805 17.9914 8.25663 19 9.50078 19C10.7449 19 11.7535 17.9914 11.7535 16.7473C11.7535 16.7423 11.7532 16.7374 11.7531 16.7324H7.24842Z" fill="#015CC8"/>
<path d="M16.6934 13.9165L14.6659 10.9382C14.6659 10.0265 14.6659 7.79873 14.6659 7.22244C14.6659 4.71656 12.8813 2.62775 10.5137 2.15702V1.0128C10.5137 0.453476 10.0602 0 9.50088 0C8.94151 0 8.48807 0.453476 8.48807 1.0128V2.15706C6.12051 2.62783 4.33589 4.71664 4.33589 7.22248C4.33589 8.20348 4.33589 10.3696 4.33589 10.9382L2.30842 13.9165C2.09486 14.2302 2.07227 14.6363 2.24973 14.9718C2.42718 15.3072 2.77555 15.517 3.15506 15.517H15.8467C16.2262 15.517 16.5746 15.3072 16.752 14.9718C16.9295 14.6363 16.9069 14.2302 16.6934 13.9165Z" fill="#015CC8"/>
</svg>
