<svg width="19" height="13" viewBox="0 0 19 13" fill="none" xmlns="http://www.w3.org/2000/svg">
<path d="M4.31908 6.47411V8.2273H14.6827V6.47411C14.6827 5.35139 15.4082 4.40138 16.41 4.04298V2.18182C16.41 1.2318 15.6327 0.454529 14.6827 0.454529H4.31908C3.36907 0.454529 2.5918 1.2318 2.5918 2.18182V4.04294C3.59363 4.40138 4.31908 5.35135 4.31908 6.47411Z" fill="#015CC8"/>
<path d="M17.2728 4.77274C16.3184 4.77274 15.5455 5.54568 15.5455 6.50002V9.09093H3.45453V6.50002C3.45453 5.54568 2.68159 4.77274 1.72729 4.77274C0.772942 4.77274 0 5.54568 0 6.50002V10.8182C0 11.7682 0.777273 12.5455 1.72729 12.5455H17.2728C18.2228 12.5455 19 11.7682 19 10.8182V6.50002C19 5.54568 18.2271 4.77274 17.2728 4.77274Z" fill="#015CC8"/>
</svg>
