<svg width="26" height="28" viewBox="0 0 26 28" fill="none" xmlns="http://www.w3.org/2000/svg">
<path d="M23.8293 10.0155H23.1569V6.77138C23.1569 6.75101 23.1538 6.73078 23.151 6.7101C23.15 6.58131 23.1089 6.45476 23.0207 6.35467L17.6223 0.187674C17.6206 0.186091 17.619 0.185529 17.618 0.183946C17.5858 0.147994 17.5483 0.117967 17.5085 0.0922284C17.4968 0.0842108 17.485 0.077623 17.4727 0.070831C17.4384 0.0521913 17.4018 0.0365135 17.3644 0.0252275C17.3541 0.022572 17.345 0.0183844 17.3349 0.0156267C17.2941 0.006026 17.2518 0 17.2089 0H3.94124C3.33542 0 2.84323 0.492753 2.84323 1.09806V10.0152H2.17098C1.30431 10.0152 0.601562 10.7176 0.601562 11.5845V19.7456C0.601562 20.612 1.30431 21.3152 2.17098 21.3152H2.84323V26.902C2.84323 27.5073 3.33542 28 3.94124 28H22.0589C22.6642 28 23.1569 27.5073 23.1569 26.902V21.3153H23.8292C24.6956 21.3153 25.3985 20.6124 25.3985 19.7459V11.5848C25.3985 10.7179 24.6957 10.0155 23.8293 10.0155ZM3.94124 1.09831H16.6599V6.71608C16.6599 7.01942 16.9059 7.26511 17.2089 7.26511H22.0589V10.0157H3.94124V1.09831ZM17.7699 17.151C18.1704 17.151 18.6149 17.0641 18.8763 16.959L19.0763 17.9957C18.8328 18.1171 18.2843 18.2485 17.5702 18.2485C15.5403 18.2485 14.4957 16.9855 14.4957 15.3135C14.4957 13.3103 15.924 12.1955 17.7008 12.1955C18.3884 12.1955 18.9113 12.3353 19.1465 12.457L18.8766 13.511C18.6066 13.3973 18.2324 13.2933 17.7617 13.2933C16.7076 13.2933 15.8894 13.9288 15.8894 15.2353C15.8891 16.41 16.5859 17.151 17.7699 17.151ZM13.8938 15.1656C13.8938 17.0901 12.7267 18.2571 11.0114 18.2571C9.26929 18.2571 8.25034 16.9416 8.25034 15.2699C8.25034 13.5107 9.37358 12.1953 11.1071 12.1953C12.9104 12.1953 13.8938 13.5456 13.8938 15.1656ZM2.45839 18.1354V12.3697C2.94619 12.2915 3.58183 12.2484 4.2524 12.2484C5.36721 12.2484 6.08987 12.4484 6.65539 12.8753C7.2654 13.3279 7.64891 14.0509 7.64891 15.0871C7.64891 16.2103 7.2395 16.9859 6.67326 17.4646C6.05478 17.9783 5.11427 18.2225 3.96438 18.2225C3.27695 18.2223 2.7892 18.1785 2.45839 18.1354ZM22.0589 26.6047H3.94124V21.3153H22.0589V26.6047H22.0589ZM23.0655 18.1611L22.5339 17.0987C22.3162 16.6895 22.1769 16.3842 22.0115 16.0448H21.994C21.8721 16.3847 21.7244 16.6895 21.5415 17.0987L21.0537 18.1611H19.5383L21.2365 15.1911L19.5995 12.2911H21.1239L21.6375 13.3628C21.8118 13.7192 21.942 14.0069 22.0815 14.3377H22.0986C22.238 13.9633 22.3516 13.7021 22.4991 13.3628L22.9955 12.2911H24.5114L22.8565 15.1562L24.5982 18.1611H23.0655Z" fill="#0065DD"/>
<path d="M6.23829 15.1302C6.24671 13.9113 5.53284 13.2665 4.39219 13.2665C4.09564 13.2665 3.90439 13.2928 3.79102 13.319V17.1593C3.90469 17.1853 4.08752 17.1853 4.25303 17.1853C5.45486 17.1944 6.23829 16.5328 6.23829 15.1302Z" fill="#0065DD"/>
<path d="M9.65234 15.2434C9.65234 16.3932 10.1924 17.2029 11.0807 17.2029C11.9778 17.2029 12.491 16.35 12.491 15.209C12.491 14.1549 11.9862 13.2492 11.0713 13.2492C10.1744 13.2494 9.65234 14.103 9.65234 15.2434Z" fill="#0065DD"/>
</svg>
