<svg width="153" height="29" viewBox="0 0 153 29" fill="none" xmlns="http://www.w3.org/2000/svg">
<path d="M4.303 19.13C3.17633 19.13 2.33133 18.8137 1.768 18.181C1.20467 17.5397 0.901333 16.6817 0.858 15.607C0.849333 15.373 0.845 14.9917 0.845 14.463C0.845 13.9257 0.849333 13.5357 0.858 13.293C0.901333 12.2183 1.20467 11.3647 1.768 10.732C2.33133 10.0907 3.17633 9.77 4.303 9.77C5.07433 9.77 5.71567 9.913 6.227 10.199C6.73833 10.4763 7.11533 10.8317 7.358 11.265C7.60933 11.6897 7.748 12.1273 7.774 12.578V12.604C7.774 12.6733 7.748 12.7297 7.696 12.773C7.644 12.8163 7.579 12.838 7.501 12.838H7.241C7.085 12.838 6.98967 12.747 6.955 12.565C6.79033 11.8283 6.49133 11.3083 6.058 11.005C5.62467 10.7017 5.03967 10.55 4.303 10.55C3.48833 10.55 2.85567 10.7797 2.405 11.239C1.95433 11.6983 1.71167 12.4047 1.677 13.358C1.66833 13.592 1.664 13.9517 1.664 14.437C1.664 14.9223 1.66833 15.2907 1.677 15.542C1.71167 16.4953 1.95433 17.2017 2.405 17.661C2.85567 18.1203 3.48833 18.35 4.303 18.35C5.03967 18.35 5.62467 18.1983 6.058 17.895C6.49133 17.5917 6.79033 17.0717 6.955 16.335C6.98967 16.153 7.085 16.062 7.241 16.062H7.501C7.579 16.062 7.644 16.088 7.696 16.14C7.75667 16.1833 7.78267 16.244 7.774 16.322C7.748 16.7727 7.60933 17.2147 7.358 17.648C7.11533 18.0727 6.73833 18.428 6.227 18.714C5.71567 18.9913 5.07433 19.13 4.303 19.13ZM9.01377 20.43C8.92711 20.43 8.85777 20.404 8.80577 20.352C8.75377 20.3 8.72777 20.2307 8.72777 20.144V18.532C8.72777 18.4453 8.75377 18.376 8.80577 18.324C8.85777 18.272 8.92711 18.246 9.01377 18.246H9.05277C9.85877 18.2287 10.2618 16.855 10.2618 14.125V12.526C10.2618 12.4393 10.2878 12.37 10.3398 12.318C10.3918 12.266 10.4611 12.24 10.5478 12.24H14.2918C14.3784 12.24 14.4478 12.266 14.4998 12.318C14.5518 12.37 14.5778 12.4393 14.5778 12.526V18.22H15.2148C15.3014 18.22 15.3708 18.246 15.4228 18.298C15.4748 18.35 15.5008 18.4193 15.5008 18.506V20.144C15.5008 20.2307 15.4748 20.3 15.4228 20.352C15.3708 20.404 15.3014 20.43 15.2148 20.43H14.9938C14.9071 20.43 14.8378 20.404 14.7858 20.352C14.7338 20.3 14.7078 20.2307 14.7078 20.144V19H9.52077V20.144C9.52077 20.2307 9.49477 20.3 9.44277 20.352C9.39077 20.404 9.32144 20.43 9.23477 20.43H9.01377ZM13.7848 18.22V12.994H11.0548V14.216C11.0548 16.1833 10.7688 17.5267 10.1968 18.246L13.7848 18.22ZM19.52 19.13C18.6967 19.13 18.0337 18.8613 17.531 18.324C17.0283 17.778 16.7423 17.05 16.673 16.14L16.66 15.62L16.673 15.1C16.7423 14.1987 17.024 13.475 17.518 12.929C18.0207 12.383 18.688 12.11 19.52 12.11C20.4213 12.11 21.1233 12.409 21.626 13.007C22.1373 13.605 22.393 14.424 22.393 15.464V15.659C22.393 15.7457 22.3627 15.815 22.302 15.867C22.25 15.919 22.1807 15.945 22.094 15.945H17.466V16.075C17.4833 16.4823 17.5743 16.8637 17.739 17.219C17.9123 17.5657 18.1507 17.8473 18.454 18.064C18.7573 18.272 19.1127 18.376 19.52 18.376C19.9967 18.376 20.3823 18.285 20.677 18.103C20.9803 17.9123 21.197 17.7217 21.327 17.531C21.405 17.427 21.4613 17.362 21.496 17.336C21.5393 17.31 21.613 17.297 21.717 17.297H21.925C22.003 17.297 22.068 17.3187 22.12 17.362C22.172 17.4053 22.198 17.4617 22.198 17.531C22.198 17.713 22.081 17.934 21.847 18.194C21.6217 18.4453 21.3053 18.6663 20.898 18.857C20.4907 19.039 20.0313 19.13 19.52 19.13ZM21.6 15.217V15.165C21.6 14.4977 21.4093 13.9473 21.028 13.514C20.6553 13.0807 20.1527 12.864 19.52 12.864C18.8873 12.864 18.3847 13.0807 18.012 13.514C17.648 13.9473 17.466 14.4977 17.466 15.165V15.217H21.6ZM23.6279 19C23.5412 19 23.4676 18.974 23.4069 18.922C23.3549 18.8613 23.3289 18.7877 23.3289 18.701V18.493C23.3289 18.415 23.3506 18.35 23.3939 18.298C23.4459 18.246 23.5109 18.22 23.5889 18.22C24.0309 18.22 24.3689 17.8993 24.6029 17.258C24.8369 16.6167 24.9539 15.5723 24.9539 14.125V12.526C24.9539 12.4393 24.9799 12.37 25.0319 12.318C25.0839 12.266 25.1532 12.24 25.2399 12.24H28.9579C29.0446 12.24 29.1139 12.266 29.1659 12.318C29.2179 12.37 29.2439 12.4393 29.2439 12.526V18.714C29.2439 18.8007 29.2179 18.87 29.1659 18.922C29.1139 18.974 29.0446 19 28.9579 19H28.7369C28.6502 19 28.5809 18.974 28.5289 18.922C28.4769 18.87 28.4509 18.8007 28.4509 18.714V12.994H25.7469V14.216C25.7469 17.4053 25.0406 19 23.6279 19ZM33.164 19.13C32.748 19.13 32.3623 19.0433 32.007 18.87C31.6517 18.6967 31.3657 18.4627 31.149 18.168C30.941 17.8733 30.837 17.5483 30.837 17.193C30.837 16.621 31.0667 16.153 31.526 15.789C31.994 15.425 32.6223 15.191 33.411 15.087L35.465 14.801V14.346C35.465 13.8693 35.3177 13.5053 35.023 13.254C34.737 12.994 34.295 12.864 33.697 12.864C33.255 12.864 32.891 12.9507 32.605 13.124C32.3277 13.2973 32.15 13.5053 32.072 13.748C32.0373 13.852 31.994 13.9257 31.942 13.969C31.8987 14.0037 31.838 14.021 31.76 14.021H31.578C31.5 14.021 31.4307 13.995 31.37 13.943C31.318 13.8823 31.292 13.813 31.292 13.735C31.292 13.5443 31.3787 13.3233 31.552 13.072C31.7253 12.812 31.994 12.5867 32.358 12.396C32.722 12.2053 33.1683 12.11 33.697 12.11C34.6243 12.11 35.283 12.331 35.673 12.773C36.063 13.215 36.258 13.7523 36.258 14.385V18.714C36.258 18.8007 36.232 18.87 36.18 18.922C36.128 18.974 36.0587 19 35.972 19H35.751C35.6643 19 35.595 18.974 35.543 18.922C35.491 18.87 35.465 18.8007 35.465 18.714V18.103C35.2743 18.389 34.9927 18.6317 34.62 18.831C34.256 19.0303 33.7707 19.13 33.164 19.13ZM33.294 18.376C33.9267 18.376 34.4467 18.168 34.854 17.752C35.2613 17.336 35.465 16.738 35.465 15.958V15.516L33.788 15.75C33.0773 15.8453 32.54 16.01 32.176 16.244C31.812 16.478 31.63 16.7727 31.63 17.128C31.63 17.5267 31.7947 17.8343 32.124 18.051C32.462 18.2677 32.852 18.376 33.294 18.376ZM38.5997 19C38.5131 19 38.4437 18.974 38.3917 18.922C38.3397 18.87 38.3137 18.8007 38.3137 18.714V12.526C38.3137 12.4393 38.3397 12.37 38.3917 12.318C38.4437 12.266 38.5131 12.24 38.5997 12.24H38.8207C38.9074 12.24 38.9767 12.266 39.0287 12.318C39.0807 12.37 39.1067 12.4393 39.1067 12.526V15.165H43.1627V12.526C43.1627 12.4393 43.1887 12.37 43.2407 12.318C43.2927 12.266 43.3621 12.24 43.4487 12.24H43.6697C43.7564 12.24 43.8257 12.266 43.8777 12.318C43.9297 12.37 43.9557 12.4393 43.9557 12.526V18.714C43.9557 18.8007 43.9297 18.87 43.8777 18.922C43.8257 18.974 43.7564 19 43.6697 19H43.4487C43.3621 19 43.2927 18.974 43.2407 18.922C43.1887 18.87 43.1627 18.8007 43.1627 18.714V15.919H39.1067V18.714C39.1067 18.8007 39.0807 18.87 39.0287 18.922C38.9767 18.974 38.9074 19 38.8207 19H38.5997ZM48.6319 19.13C47.7305 19.13 47.0285 18.857 46.5259 18.311C46.0319 17.7563 45.7719 17.0413 45.7459 16.166L45.7329 15.62L45.7459 15.074C45.7719 14.1987 46.0319 13.488 46.5259 12.942C47.0285 12.3873 47.7305 12.11 48.6319 12.11C49.5332 12.11 50.2309 12.3873 50.7249 12.942C51.2275 13.488 51.4919 14.1987 51.5179 15.074C51.5265 15.1607 51.5309 15.3427 51.5309 15.62C51.5309 15.8973 51.5265 16.0793 51.5179 16.166C51.4919 17.0413 51.2275 17.7563 50.7249 18.311C50.2309 18.857 49.5332 19.13 48.6319 19.13ZM48.6319 18.376C49.2472 18.376 49.7412 18.181 50.1139 17.791C50.4952 17.3923 50.6989 16.829 50.7249 16.101C50.7335 16.0143 50.7379 15.854 50.7379 15.62C50.7379 15.386 50.7335 15.2257 50.7249 15.139C50.6989 14.411 50.4952 13.852 50.1139 13.462C49.7412 13.0633 49.2472 12.864 48.6319 12.864C48.0165 12.864 47.5182 13.0633 47.1369 13.462C46.7642 13.852 46.5649 14.411 46.5389 15.139L46.5259 15.62L46.5389 16.101C46.5649 16.829 46.7642 17.3923 47.1369 17.791C47.5182 18.181 48.0165 18.376 48.6319 18.376ZM56.9445 19C56.8578 19 56.7885 18.974 56.7365 18.922C56.6845 18.87 56.6585 18.8007 56.6585 18.714V12.526C56.6585 12.4393 56.6845 12.37 56.7365 12.318C56.7885 12.266 56.8578 12.24 56.9445 12.24H59.5055C60.2075 12.24 60.7535 12.4003 61.1435 12.721C61.5421 13.0417 61.7415 13.4707 61.7415 14.008C61.7415 14.398 61.6678 14.697 61.5205 14.905C61.3818 15.113 61.1521 15.2907 60.8315 15.438C61.1608 15.5593 61.4165 15.7803 61.5985 16.101C61.7805 16.4217 61.8715 16.7597 61.8715 17.115C61.8715 17.7217 61.6635 18.1897 61.2475 18.519C60.8401 18.8397 60.2811 19 59.5705 19H56.9445ZM59.3755 15.217C59.8521 15.217 60.2335 15.1087 60.5195 14.892C60.8055 14.6753 60.9485 14.3807 60.9485 14.008C60.9485 13.644 60.8098 13.384 60.5325 13.228C60.2638 13.072 59.8781 12.994 59.3755 12.994H57.4515V15.217H59.3755ZM59.4665 18.246C59.9605 18.246 60.3505 18.1507 60.6365 17.96C60.9311 17.7607 61.0785 17.479 61.0785 17.115C61.0785 16.725 60.9441 16.439 60.6755 16.257C60.4155 16.0663 60.0125 15.971 59.4665 15.971H57.4515V18.246H59.4665Z" fill="black"/>
<path d="M104.202 12.9176V6.55338H106.859C108.826 6.55338 110.276 7.73575 110.276 9.71811C110.276 11.7004 108.861 12.8829 106.894 12.8829H104.202V12.9176ZM108.619 9.75289C108.619 8.7791 108.033 8.01398 106.894 8.01398H105.858V11.4917H106.894C107.963 11.4917 108.619 10.6918 108.619 9.75289Z" fill="black"/>
<path d="M110.896 9.75306C110.896 7.80548 112.346 6.48399 114.278 6.48399C116.211 6.48399 117.626 7.84026 117.626 9.75306C117.626 11.6658 116.176 13.0221 114.278 13.0221C112.311 13.0221 110.896 11.6658 110.896 9.75306ZM115.969 9.75306C115.969 8.70971 115.314 7.90981 114.278 7.90981C113.243 7.90981 112.553 8.70971 112.553 9.75306C112.553 10.7963 113.209 11.5962 114.278 11.5962C115.279 11.5962 115.969 10.7615 115.969 9.75306Z" fill="black"/>
<path d="M122.112 12.9176L121.042 10.7962H120.214V12.9176H118.592V6.55338H121.732C123.112 6.55338 123.906 7.49231 123.906 8.67477C123.906 9.78767 123.25 10.3788 122.664 10.5875L123.941 12.9176H122.112ZM122.284 8.67477C122.284 8.25743 121.939 8.01398 121.49 8.01398H120.214V9.37033H121.49C121.905 9.37033 122.284 9.12688 122.284 8.67477Z" fill="black"/>
<path d="M124.562 9.75306C124.562 7.80548 126.011 6.48399 127.943 6.48399C129.876 6.48399 131.291 7.84026 131.291 9.75306C131.291 11.6658 129.841 13.0221 127.943 13.0221C126.011 13.0221 124.562 11.6658 124.562 9.75306ZM129.669 9.75306C129.669 8.70971 129.013 7.90981 127.978 7.90981C126.943 7.90981 126.252 8.70971 126.252 9.75306C126.252 10.7963 126.908 11.5962 127.978 11.5962C128.978 11.5962 129.669 10.7615 129.669 9.75306Z" fill="black"/>
<path d="M136.501 12.9176V10.3788H133.879V12.9176H132.257V6.55338H133.879V8.95299H136.501V6.58815H138.123V12.9176H136.501Z" fill="black"/>
<path d="M139.089 9.75306C139.089 7.80548 140.538 6.48399 142.471 6.48399C144.404 6.48399 145.819 7.84026 145.819 9.75306C145.819 11.6658 144.369 13.0221 142.471 13.0221C140.538 13.0221 139.089 11.6658 139.089 9.75306ZM144.162 9.75306C144.162 8.70971 143.506 7.90981 142.437 7.90981C141.401 7.90981 140.711 8.70971 140.711 9.75306C140.711 10.7963 141.366 11.5962 142.437 11.5962C143.506 11.5962 144.162 10.7615 144.162 9.75306Z" fill="black"/>
<path d="M148.235 12.9176L145.853 6.55338H147.682L149.234 11.1439L150.787 6.55338H152.617L150.235 12.8829H148.235V12.9176Z" fill="black"/>
<path d="M104.202 22.4123V16.0828H106.859C108.826 16.0828 110.276 17.2652 110.276 19.2475C110.276 21.2298 108.861 22.4123 106.894 22.4123H104.202ZM108.619 19.2475C108.619 18.2737 108.033 17.5087 106.894 17.5087H105.858V20.9863H106.894C107.963 20.9863 108.619 20.1865 108.619 19.2475Z" fill="black"/>
<path d="M111.242 22.4123V16.0828H115.831V17.5087H112.829V18.4824H115.762V19.9083H112.829V20.9863H115.831V22.4123H111.242Z" fill="black"/>
<path d="M116.556 21.5426L117.418 20.3254C117.867 20.7775 118.557 21.1601 119.42 21.1601C119.972 21.1601 120.317 20.9514 120.317 20.6384C120.317 19.7689 116.763 20.4645 116.763 18.0301C116.763 16.952 117.66 16.013 119.282 16.013C120.282 16.013 121.18 16.326 121.835 16.8824L120.938 18.0649C120.42 17.6128 119.73 17.4041 119.109 17.4041C118.626 17.4041 118.419 17.578 118.419 17.8562C118.419 18.6561 121.973 18.0649 121.973 20.4297C121.973 21.7164 121.042 22.5511 119.351 22.5511C118.074 22.5511 117.177 22.1338 116.556 21.5426Z" fill="black"/>
<path d="M122.905 22.4123V16.0828H124.527V22.4123H122.905Z" fill="black"/>
<path d="M125.493 19.2473C125.493 17.2302 127.012 15.9784 128.909 15.9784C130.324 15.9784 131.152 16.7433 131.601 17.5085L130.255 18.2039C130.014 17.7866 129.531 17.404 128.909 17.404C127.874 17.404 127.15 18.2041 127.15 19.2473C127.15 20.2906 127.874 21.0906 128.909 21.0906C129.358 21.0906 129.841 20.9166 130.083 20.708V20.221H128.668V18.7953H131.705V21.3341C131.014 22.0992 130.117 22.5859 128.909 22.5859C127.046 22.5512 125.493 21.2644 125.493 19.2473Z" fill="black"/>
<path d="M137.123 22.4123L134.466 18.7606V22.447H132.844V16.0828H134.5L137.054 19.5605V16.0828H138.676V22.4123H137.123Z" fill="black"/>
<path d="M81.1161 0.780434H70.3496V28.1502H81.1851C90.2952 28.1502 96.1615 22.7597 96.1615 14.4479C96.1269 6.13612 90.2607 0.780434 81.1161 0.780434ZM80.8399 22.6554H76.0434V6.65779H80.909C86.5339 6.65779 90.4676 8.88352 90.4676 14.4827C90.4676 18.969 86.8788 22.6554 80.8399 22.6554Z" fill="black"/>
<path d="M81.9444 11.2138H80.7021V17.7172H81.9444C84.3945 17.7172 85.8438 16.2217 85.8438 14.3786C85.8093 12.118 84.2219 11.2138 81.9444 11.2138Z" fill="black"/>
</svg>
