<svg width="19" height="19" viewBox="0 0 19 19" fill="none" xmlns="http://www.w3.org/2000/svg">
<g clip-path="url(#clip0)">
<path d="M9.5 15.1628C5.86985 15.1628 2.57784 13.1768 0.148665 9.95081C-0.0495551 9.68652 -0.0495551 9.31729 0.148665 9.05299C2.57784 5.82317 5.86985 3.83708 9.5 3.83708C13.1302 3.83708 16.4222 5.82317 18.8513 9.04911C19.0496 9.3134 19.0496 9.68263 18.8513 9.94693C16.4222 13.1768 13.1302 15.1628 9.5 15.1628ZM9.76041 5.51224C7.35067 5.36066 5.36069 7.34674 5.51227 9.76037C5.63665 11.7503 7.24962 13.3633 9.23959 13.4877C11.6493 13.6393 13.6393 11.6532 13.4877 9.23955C13.3595 7.25346 11.7465 5.6405 9.76041 5.51224ZM9.63992 7.35452C8.34177 7.2729 7.26905 8.34173 7.35456 9.63988C7.42063 10.7126 8.29124 11.5793 9.36397 11.6493C10.6621 11.7309 11.7348 10.6621 11.6493 9.36393C11.5794 8.28732 10.7088 7.42059 9.63992 7.35452Z" fill="white"/>
</g>
<defs>
<clipPath id="clip0">
</clipPath>
</defs>
</svg>
