<svg width="9" height="16" viewBox="0 0 9 16" fill="none" xmlns="http://www.w3.org/2000/svg">
<path d="M8.32458 0.00332907L6.24976 0C3.91877 0 2.41239 1.54552 2.41239 3.93762V5.75313H0.326246C0.145978 5.75313 0 5.89927 0 6.07954V8.71001C0 8.89028 0.146145 9.03626 0.326246 9.03626H2.41239V15.6738C2.41239 15.854 2.55836 16 2.73863 16H5.46045C5.64072 16 5.7867 15.8539 5.7867 15.6738V9.03626H8.22588C8.40615 9.03626 8.55212 8.89028 8.55212 8.71001L8.55312 6.07954C8.55312 5.99299 8.51867 5.91009 8.45758 5.84884C8.39649 5.78758 8.31327 5.75313 8.22671 5.75313H5.7867V4.2141C5.7867 3.47438 5.96297 3.09886 6.92656 3.09886L8.32425 3.09836C8.50435 3.09836 8.65033 2.95222 8.65033 2.77211V0.329578C8.65033 0.149642 8.50452 0.00366197 8.32458 0.00332907Z" fill="white"/>
</svg>
