<svg width="15" height="15" viewBox="0 0 15 15" fill="none" xmlns="http://www.w3.org/2000/svg">
<g clip-path="url(#clip0)">
<path d="M0.565319 0.566499C0.942939 0.188776 1.39547 0 1.92266 0H13.0751C13.6025 0 14.0549 0.188844 14.4326 0.566499C14.8102 0.94405 14.999 1.39651 14.999 1.92378V13.0761C14.999 13.6033 14.8103 14.0559 14.4326 14.4335C14.0549 14.8111 13.6024 15 13.0751 15H1.9228C1.39571 15 0.943041 14.8111 0.565421 14.4335C0.187699 14.0559 -0.000906495 13.6033 -0.000906495 13.0761V1.92378C-0.00087229 1.39641 0.187699 0.944187 0.565319 0.566499ZM9.61312 5.4052C9.02397 4.83562 8.31594 4.5507 7.4891 4.5507C6.65588 4.5507 5.94466 4.83562 5.35538 5.4052C4.7661 5.97488 4.47163 6.66342 4.47163 7.47069C4.47163 8.27785 4.7661 8.96643 5.35538 9.53593C5.94466 10.1057 6.65564 10.3906 7.4891 10.3906C8.3159 10.3906 9.02387 10.1055 9.61312 9.53593C10.2024 8.96636 10.497 8.27785 10.497 7.47069C10.497 6.66342 10.2024 5.97491 9.61312 5.4052ZM1.69804 12.6759C1.69804 12.845 1.75681 12.9866 1.87389 13.1006C1.99131 13.2145 2.13107 13.2715 2.29399 13.2715H12.7333C12.9025 13.2715 13.0442 13.2145 13.1581 13.1006C13.2721 12.9868 13.329 12.845 13.329 12.6759V6.34754H11.9521C12.0823 6.75776 12.1473 7.18426 12.1473 7.62687C12.1473 8.87715 11.6917 9.94304 10.7802 10.8254C9.86866 11.7074 8.77168 12.1486 7.48914 12.1486C6.64278 12.1486 5.86158 11.9467 5.14519 11.5431C4.42905 11.1392 3.863 10.5908 3.44604 9.89741C3.02932 9.20401 2.82098 8.44713 2.82098 7.6269C2.82098 7.18429 2.88631 6.75789 3.01646 6.34757H1.69797V12.6759H1.69804V12.6759ZM1.69804 3.95495C1.69804 4.14376 1.76313 4.3033 1.89356 4.43348C2.02371 4.56376 2.18313 4.62882 2.37205 4.62882H4.0712C4.25991 4.62882 4.41957 4.56373 4.54972 4.43348C4.67991 4.3033 4.74496 4.14376 4.74496 3.95495V2.34378C4.74496 2.16146 4.67991 2.00361 4.54972 1.87011C4.41954 1.73668 4.25987 1.66987 4.0712 1.66987H2.37205C2.18313 1.66987 2.02367 1.73664 1.89356 1.87011C1.76317 2.00361 1.69804 2.16146 1.69804 2.34378V3.95495Z" fill="white"/>
</g>
<defs>
<clipPath id="clip0">
<rect width="15" height="15" fill="white" transform="matrix(-1 0 0 1 15 0)"/>
</clipPath>
</defs>
</svg>
