<svg width="28" height="28" viewBox="0 0 28 28" fill="none" xmlns="http://www.w3.org/2000/svg">
<path d="M27.9924 12.7972C27.9889 12.7441 27.979 12.6933 27.9615 12.6432C27.9551 12.6245 27.9504 12.6064 27.9422 12.5883C27.9142 12.5277 27.8787 12.4705 27.8297 12.4221C27.8291 12.4215 27.8291 12.4215 27.8291 12.4215L24.5 9.09183V5.83333C24.5 5.8205 24.4936 5.80942 24.4924 5.79658C24.4889 5.74525 24.479 5.69567 24.4627 5.64667C24.4562 5.628 24.4516 5.60992 24.4428 5.59183C24.4142 5.53 24.3787 5.47108 24.3285 5.42092L19.0785 0.170917C19.0283 0.12075 18.9694 0.0845833 18.907 0.056C18.8895 0.0484167 18.872 0.0431667 18.8545 0.0373333C18.8043 0.0198333 18.753 0.00991667 18.7005 0.00641667C18.6888 0.00583333 18.6783 0 18.6667 0H4.08333C3.76133 0 3.5 0.261333 3.5 0.583333V9.09183L0.170917 12.4209C0.170917 12.4209 0.170333 12.4215 0.16975 12.4221C0.12075 12.4711 0.08575 12.5282 0.05775 12.5883C0.0495833 12.6064 0.0449167 12.6245 0.0385 12.6432C0.021 12.6933 0.0105 12.7441 0.00758333 12.7972C0.00641667 12.81 0 12.8205 0 12.8333V23.9167C0 24.2387 0.261333 24.5 0.583333 24.5H3.5V27.4167C3.5 27.7387 3.76133 28 4.08333 28H23.9167C24.2387 28 24.5 27.7387 24.5 27.4167V24.5H27.4167C27.7387 24.5 28 24.2387 28 23.9167V12.8333C28 12.8205 27.9936 12.81 27.9924 12.7972ZM26.0085 12.25H24.5V10.7415L26.0085 12.25ZM22.5085 5.25H19.25V1.9915L22.5085 5.25ZM4.66667 1.16667H18.0833V5.83333C18.0833 6.15533 18.3447 6.41667 18.6667 6.41667H23.3333V9.33333V12.25H4.66667V9.33333V1.16667ZM3.5 10.7415V12.25H1.9915L3.5 10.7415ZM23.3333 26.8333H4.66667V24.5H23.3333V26.8333ZM26.8333 23.3333H1.16667V13.4167H4.08333H23.9167H26.8333V23.3333Z" fill="#0065DD"/>
<path d="M10.6481 15.5867C10.4597 15.4251 10.2468 15.3107 10.0082 15.2448C9.77019 15.1789 9.53861 15.1457 9.31403 15.1457H7.37036V22.1667H8.54053V19.3503H9.37353C9.61794 19.3503 9.85594 19.3072 10.0875 19.2214C10.3191 19.1357 10.5239 19.0032 10.7024 18.8247C10.8809 18.6462 11.0244 18.4234 11.134 18.1551C11.2431 17.8873 11.2979 17.5752 11.2979 17.2182C11.2979 16.8216 11.2367 16.4908 11.1142 16.2266C10.9917 15.9623 10.8365 15.7488 10.6481 15.5867ZM9.8997 18.0862C9.7212 18.2811 9.49311 18.3785 9.21545 18.3785H8.54111V16.1472H9.21545C9.49311 16.1472 9.7212 16.233 9.8997 16.4051C10.0782 16.5772 10.1674 16.8513 10.1674 17.2282C10.1674 17.605 10.0782 17.8908 9.8997 18.0862Z" fill="#0065DD"/>
<path d="M17.9216 22.1667H19.1215V19.152H20.9165V18.1306H19.1122V16.2167H21.0652V15.1457H17.9216V22.1667Z" fill="#0065DD"/>
<path d="M14.0442 15.1457H12.2791V22.1667H14.0343C14.9402 22.1667 15.6262 21.861 16.0923 21.2497C16.5584 20.6377 16.7911 19.7767 16.7911 18.6661C16.7911 17.5554 16.5584 16.6909 16.0923 16.0726C15.6262 15.4548 14.9437 15.1457 14.0442 15.1457ZM15.4874 19.7417C15.4116 20.0497 15.3036 20.3058 15.1654 20.5106C15.0266 20.7153 14.8615 20.8693 14.6696 20.9714C14.4776 21.0741 14.2694 21.1254 14.0448 21.1254H13.4796V16.1869H14.0448C14.2694 16.1869 14.4776 16.2382 14.6696 16.3409C14.8615 16.443 15.0266 16.597 15.1654 16.8017C15.3042 17.0065 15.4116 17.2643 15.4874 17.5752C15.5632 17.8862 15.6017 18.2496 15.6017 18.6661C15.6017 19.0762 15.5632 19.4343 15.4874 19.7417Z" fill="#0065DD"/>
</svg>
