<svg width="13" height="12" viewBox="0 0 13 12" fill="none" xmlns="http://www.w3.org/2000/svg">
<g clip-path="url(#clip0)">
<path d="M1.99801 12C2.80288 12 3.48177 11.3693 3.48177 10.5938C3.48177 9.81821 2.80288 9.16406 1.99801 9.16406C1.19313 9.16406 0.538574 9.81821 0.538574 10.5938C0.538574 11.3693 1.19313 12 1.99801 12Z" fill="#E8523D"/>
<path d="M0.903433 7.03125H1.63315C3.84967 7.03125 5.69524 8.80948 5.69524 10.9453V11.6484C5.69524 11.8426 5.85858 12 6.0601 12H6.78982C6.99135 12 7.15468 11.8426 7.15468 11.6484V10.9453C7.15468 8.03284 4.65578 5.625 1.63315 5.625H0.903433C0.701906 5.625 0.538574 5.78238 0.538574 5.97656V6.67969C0.538574 6.87387 0.701906 7.03125 0.903433 7.03125Z" fill="#E8523D"/>
<path d="M0.903433 4.21875H1.63315C5.46179 4.21875 8.61411 7.2562 8.61411 10.9453V11.6484C8.61411 11.8426 8.77745 12 8.97897 12H9.70869C9.91022 12 10.0736 11.8426 10.0736 11.6484V10.9453C10.0736 6.47955 6.26781 2.8125 1.63315 2.8125H0.903433C0.701906 2.8125 0.538574 2.96988 0.538574 3.16406V3.86719C0.538574 4.06137 0.701906 4.21875 0.903433 4.21875Z" fill="#E8523D"/>
<path d="M1.63315 0H0.903433C0.701906 0 0.538574 0.157379 0.538574 0.351562V1.05469C0.538574 1.24887 0.701906 1.40625 0.903433 1.40625H1.63315C7.07382 1.40625 11.533 5.70291 11.533 10.9453V11.6484C11.533 11.8426 11.6963 12 11.8978 12H12.6276C12.8291 12 12.9924 11.8426 12.9924 11.6484V10.9453C12.9924 4.92627 7.87984 0 1.63315 0Z" fill="#E8523D"/>
</g>
<defs>
<clipPath id="clip0">
<rect width="12.4538" height="12" fill="white" transform="translate(0.538574)"/>
</clipPath>
</defs>
</svg>
