<svg width="16" height="16" viewBox="0 0 16 16" fill="none" xmlns="http://www.w3.org/2000/svg">
<g clip-path="url(#clip0)">
<path d="M16 3.03938C15.4111 3.30032 14.7792 3.47728 14.1153 3.55629C14.7932 3.15036 15.3121 2.50649 15.558 1.74163C14.9222 2.11755 14.2203 2.39051 13.4724 2.53849C12.8735 1.89961 12.0217 1.50168 11.0769 1.50168C9.26421 1.50168 7.79448 2.9714 7.79448 4.78306C7.79448 5.04 7.82348 5.29095 7.87948 5.53093C5.152 5.39393 2.73346 4.08719 1.11477 2.10155C0.831817 2.58547 0.67085 3.14934 0.67085 3.75124C0.67085 4.89004 1.25075 5.89485 2.13059 6.48272C1.59268 6.46473 1.08677 6.31676 0.643869 6.0708V6.11179C0.643869 7.70149 1.77566 9.02823 3.27637 9.33019C3.00141 9.40418 2.71148 9.44517 2.41153 9.44517C2.19958 9.44517 1.99461 9.42418 1.79365 9.38418C2.21156 10.6889 3.42335 11.6377 4.85908 11.6638C3.73629 12.5436 2.32055 13.0665 0.78285 13.0665C0.517909 13.0665 0.256941 13.0505 0 13.0215C1.45273 13.9543 3.17741 14.4982 5.03106 14.4982C11.0689 14.4982 14.3693 9.49717 14.3693 5.16L14.3583 4.73509C15.0032 4.27514 15.561 3.69726 16 3.03938Z" fill="white"/>
</g>
<defs>
<clipPath id="clip0">
<rect width="16" height="16" fill="white"/>
</clipPath>
</defs>
</svg>
