<svg width="26" height="26" fill="none" xmlns="http://www.w3.org/2000/svg"><g clip-path="url(#clip0)"><path d="M1.411 11.187h9.775V1.412C11.186.967 11.791 0 13 0c1.21 0 1.814.966 1.814 1.41v9.776h9.775c.445 0 1.411.605 1.411 1.814 0 1.21-.966 1.814-1.41 1.814h-9.776v9.775c0 .445-.605 1.41-1.814 1.41-1.21 0-1.814-.965-1.814-1.41v-9.775H1.411C.966 14.815 0 14.21 0 13s.966-1.814 1.411-1.814z" fill="#015CC8"/></g><defs><clipPath id="clip0"><path fill="#fff" transform="matrix(-1 0 0 1 26 0)" d="M0 0h26v26H0z"/></clipPath></defs></svg>